<svg width="567" height="166" viewBox="0 0 567 166" fill="none" xmlns="http://www.w3.org/2000/svg">
<path d="M13.36 35.48C11.952 35.48 10.544 35.368 9.136 35.144C7.728 34.952 6.4 34.648 5.152 34.232C3.904 33.784 2.784 33.24 1.792 32.6C1.216 32.216 0.816 31.752 0.592 31.208C0.368 30.664 0.288 30.136 0.352 29.624C0.448 29.08 0.656 28.616 0.976 28.232C1.328 27.816 1.76 27.56 2.272 27.464C2.784 27.368 3.344 27.512 3.952 27.896C5.36 28.728 6.848 29.336 8.416 29.72C9.984 30.104 11.632 30.296 13.36 30.296C15.888 30.296 17.728 29.88 18.88 29.048C20.032 28.184 20.608 27.08 20.608 25.736C20.608 24.616 20.192 23.736 19.36 23.096C18.56 22.456 17.168 21.928 15.184 21.512L9.904 20.408C6.864 19.768 4.592 18.696 3.088 17.192C1.616 15.656 0.88 13.64 0.88 11.144C0.88 9.576 1.2 8.152 1.84 6.872C2.48 5.592 3.376 4.488 4.528 3.56C5.712 2.632 7.104 1.928 8.704 1.448C10.336 0.935998 12.128 0.679998 14.08 0.679998C16 0.679998 17.824 0.919998 19.552 1.4C21.28 1.88 22.832 2.584 24.208 3.512C24.72 3.864 25.056 4.296 25.216 4.808C25.408 5.32 25.456 5.832 25.36 6.344C25.264 6.824 25.04 7.24 24.688 7.592C24.336 7.944 23.888 8.152 23.344 8.216C22.832 8.28 22.24 8.12 21.568 7.736C20.384 7.064 19.184 6.584 17.968 6.296C16.752 6.008 15.44 5.864 14.032 5.864C12.56 5.864 11.296 6.072 10.24 6.488C9.184 6.904 8.368 7.496 7.792 8.264C7.248 9 6.976 9.88 6.976 10.904C6.976 12.056 7.36 12.984 8.128 13.688C8.896 14.36 10.208 14.888 12.064 15.272L17.296 16.376C20.464 17.048 22.816 18.104 24.352 19.544C25.92 20.984 26.704 22.904 26.704 25.304C26.704 26.84 26.384 28.232 25.744 29.48C25.136 30.728 24.24 31.8 23.056 32.696C21.904 33.592 20.512 34.28 18.88 34.76C17.248 35.24 15.408 35.48 13.36 35.48ZM42.9693 35.48C40.3133 35.48 38.0253 34.984 36.1053 33.992C34.1853 33 32.6973 31.592 31.6413 29.768C30.6173 27.944 30.1053 25.784 30.1053 23.288C30.1053 20.856 30.6013 18.728 31.5933 16.904C32.6173 15.08 34.0093 13.656 35.7693 12.632C37.5613 11.576 39.5933 11.048 41.8653 11.048C43.5293 11.048 45.0173 11.32 46.3293 11.864C47.6733 12.408 48.8093 13.192 49.7373 14.216C50.6973 15.24 51.4173 16.488 51.8973 17.96C52.4093 19.4 52.6653 21.032 52.6653 22.856C52.6653 23.432 52.4573 23.88 52.0413 24.2C51.6573 24.488 51.0973 24.632 50.3613 24.632H34.9533V21.176H48.4413L47.6733 21.896C47.6733 20.424 47.4493 19.192 47.0013 18.2C46.5853 17.208 45.9613 16.456 45.1293 15.944C44.3293 15.4 43.3213 15.128 42.1053 15.128C40.7613 15.128 39.6093 15.448 38.6493 16.088C37.7213 16.696 37.0013 17.576 36.4893 18.728C36.0093 19.848 35.7693 21.192 35.7693 22.76V23.096C35.7693 25.72 36.3773 27.688 37.5933 29C38.8413 30.28 40.6653 30.92 43.0653 30.92C43.8973 30.92 44.8253 30.824 45.8493 30.632C46.9053 30.408 47.8973 30.04 48.8253 29.528C49.4973 29.144 50.0893 28.984 50.6013 29.048C51.1133 29.08 51.5133 29.256 51.8013 29.576C52.1213 29.896 52.3133 30.296 52.3773 30.776C52.4413 31.224 52.3453 31.688 52.0893 32.168C51.8653 32.648 51.4653 33.064 50.8893 33.416C49.7693 34.12 48.4733 34.648 47.0013 35C45.5613 35.32 44.2173 35.48 42.9693 35.48ZM65.4329 35.48C62.7769 35.48 60.7769 34.728 59.4329 33.224C58.0889 31.688 57.4169 29.448 57.4169 26.504V3.8C57.4169 2.808 57.6729 2.056 58.1849 1.544C58.6969 1.032 59.4329 0.775997 60.3929 0.775997C61.3529 0.775997 62.0889 1.032 62.6009 1.544C63.1449 2.056 63.4169 2.808 63.4169 3.8V26.216C63.4169 27.688 63.7209 28.776 64.3289 29.48C64.9689 30.184 65.8649 30.536 67.0169 30.536C67.2729 30.536 67.5129 30.536 67.7369 30.536C67.9609 30.504 68.1849 30.472 68.4089 30.44C68.8569 30.376 69.1609 30.504 69.3209 30.824C69.4809 31.112 69.5609 31.72 69.5609 32.648C69.5609 33.448 69.4009 34.072 69.0809 34.52C68.7609 34.968 68.2329 35.24 67.4969 35.336C67.1769 35.368 66.8409 35.4 66.4889 35.432C66.1369 35.464 65.7849 35.48 65.4329 35.48ZM80.473 35.48C78.777 35.48 77.257 35.16 75.913 34.52C74.601 33.848 73.561 32.952 72.793 31.832C72.057 30.712 71.689 29.448 71.689 28.04C71.689 26.312 72.137 24.952 73.033 23.96C73.929 22.936 75.385 22.2 77.401 21.752C79.417 21.304 82.121 21.08 85.513 21.08H87.913V24.536H85.561C83.577 24.536 81.993 24.632 80.809 24.824C79.625 25.016 78.777 25.352 78.265 25.832C77.785 26.28 77.545 26.92 77.545 27.752C77.545 28.808 77.913 29.672 78.649 30.344C79.385 31.016 80.409 31.352 81.721 31.352C82.777 31.352 83.705 31.112 84.505 30.632C85.337 30.12 85.993 29.432 86.473 28.568C86.953 27.704 87.193 26.712 87.193 25.592V20.072C87.193 18.472 86.841 17.32 86.137 16.616C85.433 15.912 84.249 15.56 82.585 15.56C81.657 15.56 80.649 15.672 79.561 15.896C78.505 16.12 77.385 16.504 76.201 17.048C75.593 17.336 75.049 17.416 74.569 17.288C74.121 17.16 73.769 16.904 73.513 16.52C73.257 16.104 73.129 15.656 73.129 15.176C73.129 14.696 73.257 14.232 73.513 13.784C73.769 13.304 74.201 12.952 74.809 12.728C76.281 12.12 77.689 11.688 79.033 11.432C80.409 11.176 81.657 11.048 82.777 11.048C85.081 11.048 86.969 11.4 88.441 12.104C89.945 12.808 91.065 13.88 91.801 15.32C92.537 16.728 92.905 18.552 92.905 20.792V32.312C92.905 33.304 92.665 34.072 92.185 34.616C91.705 35.128 91.017 35.384 90.121 35.384C89.225 35.384 88.521 35.128 88.009 34.616C87.529 34.072 87.289 33.304 87.289 32.312V30.008H87.673C87.449 31.128 87.001 32.104 86.329 32.936C85.689 33.736 84.873 34.36 83.881 34.808C82.889 35.256 81.753 35.48 80.473 35.48ZM102.067 35.384C101.107 35.384 100.371 35.128 99.859 34.616C99.347 34.072 99.091 33.304 99.091 32.312V14.168C99.091 13.176 99.347 12.424 99.859 11.912C100.371 11.4 101.091 11.144 102.019 11.144C102.947 11.144 103.667 11.4 104.179 11.912C104.691 12.424 104.947 13.176 104.947 14.168V17.672L104.419 16.232C105.059 14.632 106.051 13.368 107.395 12.44C108.739 11.512 110.339 11.048 112.195 11.048C114.083 11.048 115.635 11.496 116.851 12.392C118.067 13.288 118.915 14.664 119.395 16.52H118.723C119.363 14.824 120.419 13.496 121.891 12.536C123.363 11.544 125.059 11.048 126.979 11.048C128.771 11.048 130.243 11.4 131.395 12.104C132.579 12.808 133.459 13.88 134.035 15.32C134.611 16.728 134.899 18.52 134.899 20.696V32.312C134.899 33.304 134.627 34.072 134.083 34.616C133.571 35.128 132.835 35.384 131.875 35.384C130.915 35.384 130.179 35.128 129.667 34.616C129.155 34.072 128.899 33.304 128.899 32.312V20.936C128.899 19.144 128.595 17.832 127.987 17C127.411 16.168 126.419 15.752 125.011 15.752C123.443 15.752 122.211 16.312 121.315 17.432C120.419 18.52 119.971 20.04 119.971 21.992V32.312C119.971 33.304 119.715 34.072 119.203 34.616C118.691 35.128 117.955 35.384 116.995 35.384C116.035 35.384 115.283 35.128 114.739 34.616C114.227 34.072 113.971 33.304 113.971 32.312V20.936C113.971 19.144 113.667 17.832 113.059 17C112.483 16.168 111.507 15.752 110.131 15.752C108.563 15.752 107.331 16.312 106.435 17.432C105.539 18.52 105.091 20.04 105.091 21.992V32.312C105.091 34.36 104.083 35.384 102.067 35.384ZM148.817 35.48C147.121 35.48 145.601 35.16 144.257 34.52C142.945 33.848 141.905 32.952 141.137 31.832C140.401 30.712 140.033 29.448 140.033 28.04C140.033 26.312 140.481 24.952 141.377 23.96C142.273 22.936 143.729 22.2 145.745 21.752C147.761 21.304 150.465 21.08 153.857 21.08H156.257V24.536H153.905C151.921 24.536 150.337 24.632 149.153 24.824C147.969 25.016 147.121 25.352 146.609 25.832C146.129 26.28 145.889 26.92 145.889 27.752C145.889 28.808 146.257 29.672 146.993 30.344C147.729 31.016 148.753 31.352 150.065 31.352C151.121 31.352 152.049 31.112 152.849 30.632C153.681 30.12 154.337 29.432 154.817 28.568C155.297 27.704 155.537 26.712 155.537 25.592V20.072C155.537 18.472 155.185 17.32 154.481 16.616C153.777 15.912 152.593 15.56 150.929 15.56C150.001 15.56 148.993 15.672 147.905 15.896C146.849 16.12 145.729 16.504 144.545 17.048C143.937 17.336 143.393 17.416 142.913 17.288C142.465 17.16 142.113 16.904 141.857 16.52C141.601 16.104 141.473 15.656 141.473 15.176C141.473 14.696 141.601 14.232 141.857 13.784C142.113 13.304 142.545 12.952 143.153 12.728C144.625 12.12 146.033 11.688 147.377 11.432C148.753 11.176 150.001 11.048 151.121 11.048C153.425 11.048 155.313 11.4 156.785 12.104C158.289 12.808 159.409 13.88 160.145 15.32C160.881 16.728 161.249 18.552 161.249 20.792V32.312C161.249 33.304 161.009 34.072 160.529 34.616C160.049 35.128 159.361 35.384 158.465 35.384C157.569 35.384 156.865 35.128 156.353 34.616C155.873 34.072 155.633 33.304 155.633 32.312V30.008H156.017C155.793 31.128 155.345 32.104 154.673 32.936C154.033 33.736 153.217 34.36 152.225 34.808C151.233 35.256 150.097 35.48 148.817 35.48ZM178.091 35.48C176.011 35.48 174.267 35.128 172.859 34.424C171.483 33.72 170.459 32.696 169.787 31.352C169.115 29.976 168.779 28.28 168.779 26.264V16.04H166.283C165.515 16.04 164.923 15.848 164.507 15.464C164.091 15.048 163.883 14.488 163.883 13.784C163.883 13.048 164.091 12.488 164.507 12.104C164.923 11.72 165.515 11.528 166.283 11.528H168.779V7.16C168.779 6.168 169.035 5.416 169.547 4.904C170.091 4.392 170.843 4.136 171.803 4.136C172.763 4.136 173.499 4.392 174.011 4.904C174.523 5.416 174.779 6.168 174.779 7.16V11.528H179.867C180.635 11.528 181.227 11.72 181.643 12.104C182.059 12.488 182.267 13.048 182.267 13.784C182.267 14.488 182.059 15.048 181.643 15.464C181.227 15.848 180.635 16.04 179.867 16.04H174.779V25.928C174.779 27.464 175.115 28.616 175.787 29.384C176.459 30.152 177.547 30.536 179.051 30.536C179.595 30.536 180.075 30.488 180.491 30.392C180.907 30.296 181.275 30.232 181.595 30.2C181.979 30.168 182.299 30.296 182.555 30.584C182.811 30.84 182.939 31.384 182.939 32.216C182.939 32.856 182.827 33.432 182.603 33.944C182.411 34.424 182.043 34.76 181.499 34.952C181.083 35.08 180.539 35.192 179.867 35.288C179.195 35.416 178.603 35.48 178.091 35.48ZM202.632 35C201.576 35 200.76 34.728 200.184 34.184C199.64 33.608 199.368 32.792 199.368 31.736V4.424C199.368 3.368 199.64 2.568 200.184 2.024C200.76 1.448 201.576 1.16 202.632 1.16H211.944C217.608 1.16 221.976 2.616 225.048 5.528C228.152 8.44 229.704 12.616 229.704 18.056C229.704 20.776 229.304 23.192 228.504 25.304C227.736 27.384 226.584 29.144 225.048 30.584C223.544 32.024 221.688 33.128 219.48 33.896C217.304 34.632 214.792 35 211.944 35H202.632ZM205.512 29.912H211.56C213.544 29.912 215.256 29.672 216.696 29.192C218.168 28.68 219.384 27.944 220.344 26.984C221.336 25.992 222.072 24.76 222.552 23.288C223.032 21.784 223.272 20.04 223.272 18.056C223.272 14.088 222.296 11.128 220.344 9.176C218.392 7.224 215.464 6.248 211.56 6.248H205.512V29.912ZM243.082 35.48C241.386 35.48 239.866 35.16 238.522 34.52C237.21 33.848 236.17 32.952 235.402 31.832C234.666 30.712 234.298 29.448 234.298 28.04C234.298 26.312 234.746 24.952 235.642 23.96C236.538 22.936 237.994 22.2 240.01 21.752C242.026 21.304 244.73 21.08 248.122 21.08H250.522V24.536H248.17C246.186 24.536 244.602 24.632 243.418 24.824C242.234 25.016 241.386 25.352 240.874 25.832C240.394 26.28 240.154 26.92 240.154 27.752C240.154 28.808 240.522 29.672 241.258 30.344C241.994 31.016 243.018 31.352 244.33 31.352C245.386 31.352 246.314 31.112 247.114 30.632C247.946 30.12 248.602 29.432 249.082 28.568C249.562 27.704 249.802 26.712 249.802 25.592V20.072C249.802 18.472 249.45 17.32 248.746 16.616C248.042 15.912 246.858 15.56 245.194 15.56C244.266 15.56 243.258 15.672 242.17 15.896C241.114 16.12 239.994 16.504 238.81 17.048C238.202 17.336 237.658 17.416 237.178 17.288C236.73 17.16 236.378 16.904 236.122 16.52C235.866 16.104 235.738 15.656 235.738 15.176C235.738 14.696 235.866 14.232 236.122 13.784C236.378 13.304 236.81 12.952 237.418 12.728C238.89 12.12 240.298 11.688 241.642 11.432C243.018 11.176 244.266 11.048 245.386 11.048C247.69 11.048 249.578 11.4 251.05 12.104C252.554 12.808 253.674 13.88 254.41 15.32C255.146 16.728 255.514 18.552 255.514 20.792V32.312C255.514 33.304 255.274 34.072 254.794 34.616C254.314 35.128 253.626 35.384 252.73 35.384C251.834 35.384 251.13 35.128 250.618 34.616C250.138 34.072 249.898 33.304 249.898 32.312V30.008H250.282C250.058 31.128 249.61 32.104 248.938 32.936C248.298 33.736 247.482 34.36 246.49 34.808C245.498 35.256 244.362 35.48 243.082 35.48ZM272.356 35.48C270.276 35.48 268.532 35.128 267.124 34.424C265.748 33.72 264.724 32.696 264.052 31.352C263.38 29.976 263.044 28.28 263.044 26.264V16.04H260.548C259.78 16.04 259.188 15.848 258.772 15.464C258.356 15.048 258.148 14.488 258.148 13.784C258.148 13.048 258.356 12.488 258.772 12.104C259.188 11.72 259.78 11.528 260.548 11.528H263.044V7.16C263.044 6.168 263.3 5.416 263.812 4.904C264.356 4.392 265.108 4.136 266.068 4.136C267.028 4.136 267.764 4.392 268.276 4.904C268.788 5.416 269.044 6.168 269.044 7.16V11.528H274.132C274.9 11.528 275.492 11.72 275.908 12.104C276.324 12.488 276.532 13.048 276.532 13.784C276.532 14.488 276.324 15.048 275.908 15.464C275.492 15.848 274.9 16.04 274.132 16.04H269.044V25.928C269.044 27.464 269.38 28.616 270.052 29.384C270.724 30.152 271.812 30.536 273.316 30.536C273.86 30.536 274.34 30.488 274.756 30.392C275.172 30.296 275.54 30.232 275.86 30.2C276.244 30.168 276.564 30.296 276.82 30.584C277.076 30.84 277.204 31.384 277.204 32.216C277.204 32.856 277.092 33.432 276.868 33.944C276.676 34.424 276.308 34.76 275.764 34.952C275.348 35.08 274.804 35.192 274.132 35.288C273.46 35.416 272.868 35.48 272.356 35.48ZM287.754 35.48C286.058 35.48 284.538 35.16 283.194 34.52C281.882 33.848 280.842 32.952 280.074 31.832C279.338 30.712 278.97 29.448 278.97 28.04C278.97 26.312 279.418 24.952 280.314 23.96C281.21 22.936 282.666 22.2 284.682 21.752C286.698 21.304 289.402 21.08 292.794 21.08H295.194V24.536H292.842C290.858 24.536 289.274 24.632 288.09 24.824C286.906 25.016 286.058 25.352 285.546 25.832C285.066 26.28 284.826 26.92 284.826 27.752C284.826 28.808 285.194 29.672 285.93 30.344C286.666 31.016 287.69 31.352 289.002 31.352C290.058 31.352 290.986 31.112 291.786 30.632C292.618 30.12 293.274 29.432 293.754 28.568C294.234 27.704 294.474 26.712 294.474 25.592V20.072C294.474 18.472 294.122 17.32 293.418 16.616C292.714 15.912 291.53 15.56 289.866 15.56C288.938 15.56 287.93 15.672 286.842 15.896C285.786 16.12 284.666 16.504 283.482 17.048C282.874 17.336 282.33 17.416 281.85 17.288C281.402 17.16 281.05 16.904 280.794 16.52C280.538 16.104 280.41 15.656 280.41 15.176C280.41 14.696 280.538 14.232 280.794 13.784C281.05 13.304 281.482 12.952 282.09 12.728C283.562 12.12 284.97 11.688 286.314 11.432C287.69 11.176 288.938 11.048 290.058 11.048C292.362 11.048 294.25 11.4 295.722 12.104C297.226 12.808 298.346 13.88 299.082 15.32C299.818 16.728 300.186 18.552 300.186 20.792V32.312C300.186 33.304 299.946 34.072 299.466 34.616C298.986 35.128 298.298 35.384 297.402 35.384C296.506 35.384 295.802 35.128 295.29 34.616C294.81 34.072 294.57 33.304 294.57 32.312V30.008H294.954C294.73 31.128 294.282 32.104 293.61 32.936C292.97 33.736 292.154 34.36 291.162 34.808C290.17 35.256 289.034 35.48 287.754 35.48ZM309.252 35.384C308.292 35.384 307.556 35.128 307.044 34.616C306.532 34.072 306.276 33.304 306.276 32.312V14.168C306.276 13.176 306.532 12.424 307.044 11.912C307.556 11.4 308.276 11.144 309.204 11.144C310.132 11.144 310.852 11.4 311.364 11.912C311.876 12.424 312.132 13.176 312.132 14.168V17.432L311.604 16.232C312.308 14.536 313.396 13.256 314.868 12.392C316.372 11.496 318.068 11.048 319.956 11.048C321.844 11.048 323.396 11.4 324.612 12.104C325.828 12.808 326.74 13.88 327.348 15.32C327.956 16.728 328.26 18.52 328.26 20.696V32.312C328.26 33.304 328.004 34.072 327.492 34.616C326.98 35.128 326.244 35.384 325.284 35.384C324.324 35.384 323.572 35.128 323.028 34.616C322.516 34.072 322.26 33.304 322.26 32.312V20.984C322.26 19.16 321.908 17.832 321.204 17C320.532 16.168 319.476 15.752 318.036 15.752C316.276 15.752 314.868 16.312 313.812 17.432C312.788 18.52 312.276 19.976 312.276 21.8V32.312C312.276 34.36 311.268 35.384 309.252 35.384ZM345.298 44.12C343.57 44.12 341.89 43.96 340.258 43.64C338.658 43.32 337.202 42.824 335.89 42.152C335.282 41.832 334.866 41.448 334.642 41C334.45 40.552 334.386 40.088 334.45 39.608C334.546 39.16 334.738 38.76 335.026 38.408C335.346 38.056 335.73 37.816 336.178 37.688C336.626 37.56 337.09 37.624 337.57 37.88C338.978 38.584 340.306 39.032 341.554 39.224C342.834 39.448 343.922 39.56 344.818 39.56C346.962 39.56 348.562 39.032 349.618 37.976C350.706 36.952 351.25 35.416 351.25 33.368V29.048H351.682C351.202 30.68 350.194 31.992 348.658 32.984C347.154 33.944 345.442 34.424 343.522 34.424C341.41 34.424 339.57 33.944 338.002 32.984C336.434 31.992 335.218 30.616 334.354 28.856C333.49 27.096 333.058 25.048 333.058 22.712C333.058 20.952 333.298 19.368 333.778 17.96C334.29 16.52 334.994 15.288 335.89 14.264C336.818 13.24 337.922 12.456 339.202 11.912C340.514 11.336 341.954 11.048 343.522 11.048C345.506 11.048 347.234 11.544 348.706 12.536C350.21 13.496 351.186 14.776 351.634 16.376L351.154 17.576V14.168C351.154 13.176 351.41 12.424 351.922 11.912C352.466 11.4 353.202 11.144 354.13 11.144C355.09 11.144 355.826 11.4 356.338 11.912C356.85 12.424 357.106 13.176 357.106 14.168V32.648C357.106 36.456 356.098 39.32 354.082 41.24C352.066 43.16 349.138 44.12 345.298 44.12ZM345.154 29.864C346.402 29.864 347.474 29.576 348.37 29C349.266 28.424 349.954 27.608 350.434 26.552C350.946 25.464 351.202 24.184 351.202 22.712C351.202 20.504 350.658 18.776 349.57 17.528C348.482 16.248 347.01 15.608 345.154 15.608C343.906 15.608 342.834 15.896 341.938 16.472C341.042 17.048 340.338 17.864 339.826 18.92C339.346 19.976 339.106 21.24 339.106 22.712C339.106 24.92 339.65 26.664 340.738 27.944C341.826 29.224 343.298 29.864 345.154 29.864ZM385.378 35.48C383.33 35.48 381.522 34.984 379.954 33.992C378.418 33 377.218 31.592 376.354 29.768C375.49 27.912 375.058 25.736 375.058 23.24C375.058 20.712 375.49 18.552 376.354 16.76C377.218 14.936 378.418 13.528 379.954 12.536C381.522 11.544 383.33 11.048 385.378 11.048C387.33 11.048 389.026 11.528 390.466 12.488C391.938 13.448 392.93 14.712 393.442 16.28H392.914V3.8C392.914 2.808 393.17 2.056 393.682 1.544C394.194 1.032 394.93 0.775997 395.89 0.775997C396.85 0.775997 397.586 1.032 398.098 1.544C398.642 2.056 398.914 2.808 398.914 3.8V32.312C398.914 33.304 398.658 34.072 398.146 34.616C397.634 35.128 396.898 35.384 395.938 35.384C394.978 35.384 394.242 35.128 393.73 34.616C393.218 34.072 392.962 33.304 392.962 32.312V28.568L393.49 30.008C393.01 31.672 392.034 33 390.562 33.992C389.09 34.984 387.362 35.48 385.378 35.48ZM387.058 30.92C388.242 30.92 389.282 30.632 390.178 30.056C391.074 29.48 391.762 28.632 392.242 27.512C392.754 26.36 393.01 24.936 393.01 23.24C393.01 20.68 392.466 18.776 391.378 17.528C390.29 16.248 388.85 15.608 387.058 15.608C385.874 15.608 384.834 15.896 383.938 16.472C383.042 17.016 382.338 17.864 381.826 19.016C381.346 20.136 381.106 21.544 381.106 23.24C381.106 25.768 381.65 27.688 382.738 29C383.826 30.28 385.266 30.92 387.058 30.92ZM408.112 35.336C407.152 35.336 406.416 35.048 405.904 34.472C405.392 33.896 405.136 33.096 405.136 32.072V14.456C405.136 13.4 405.392 12.6 405.904 12.056C406.416 11.48 407.152 11.192 408.112 11.192C409.072 11.192 409.808 11.48 410.32 12.056C410.864 12.6 411.136 13.4 411.136 14.456V32.072C411.136 33.096 410.88 33.896 410.368 34.472C409.856 35.048 409.104 35.336 408.112 35.336ZM408.112 6.728C406.992 6.728 406.112 6.456 405.472 5.912C404.864 5.336 404.56 4.552 404.56 3.56C404.56 2.536 404.864 1.752 405.472 1.208C406.112 0.663999 406.992 0.391999 408.112 0.391999C409.264 0.391999 410.144 0.663999 410.752 1.208C411.36 1.752 411.664 2.536 411.664 3.56C411.664 4.552 411.36 5.336 410.752 5.912C410.144 6.456 409.264 6.728 408.112 6.728ZM434.145 35.384C433.153 35.384 432.369 35.112 431.793 34.568C431.249 33.992 430.977 33.176 430.977 32.12V4.424C430.977 3.368 431.249 2.568 431.793 2.024C432.369 1.448 433.185 1.16 434.241 1.16H450.993C451.825 1.16 452.449 1.368 452.865 1.784C453.281 2.2 453.489 2.792 453.489 3.56C453.489 4.36 453.281 4.984 452.865 5.432C452.449 5.848 451.825 6.056 450.993 6.056H437.121V15.608H449.985C450.785 15.608 451.393 15.816 451.809 16.232C452.257 16.648 452.481 17.24 452.481 18.008C452.481 18.808 452.257 19.432 451.809 19.88C451.393 20.296 450.785 20.504 449.985 20.504H437.121V32.12C437.121 34.296 436.129 35.384 434.145 35.384ZM467.215 35.48C464.783 35.48 462.671 34.984 460.879 33.992C459.087 33 457.695 31.592 456.703 29.768C455.711 27.912 455.215 25.736 455.215 23.24C455.215 21.352 455.487 19.672 456.031 18.2C456.607 16.696 457.423 15.416 458.479 14.36C459.535 13.272 460.799 12.456 462.271 11.912C463.743 11.336 465.391 11.048 467.215 11.048C469.647 11.048 471.759 11.544 473.551 12.536C475.343 13.528 476.735 14.936 477.727 16.76C478.719 18.584 479.215 20.744 479.215 23.24C479.215 25.128 478.927 26.824 478.351 28.328C477.807 29.832 477.007 31.128 475.951 32.216C474.895 33.272 473.631 34.088 472.159 34.664C470.687 35.208 469.039 35.48 467.215 35.48ZM467.215 30.92C468.399 30.92 469.439 30.632 470.335 30.056C471.231 29.48 471.919 28.632 472.399 27.512C472.911 26.36 473.167 24.936 473.167 23.24C473.167 20.68 472.623 18.776 471.535 17.528C470.447 16.248 469.007 15.608 467.215 15.608C466.031 15.608 464.991 15.896 464.095 16.472C463.199 17.016 462.495 17.864 461.983 19.016C461.503 20.136 461.263 21.544 461.263 23.24C461.263 25.768 461.807 27.688 462.895 29C463.983 30.28 465.423 30.92 467.215 30.92ZM487.239 35.384C486.247 35.384 485.479 35.128 484.935 34.616C484.423 34.072 484.167 33.304 484.167 32.312V14.168C484.167 13.176 484.423 12.424 484.935 11.912C485.447 11.4 486.167 11.144 487.095 11.144C488.023 11.144 488.743 11.4 489.255 11.912C489.767 12.424 490.023 13.176 490.023 14.168V17.192H489.543C489.991 15.272 490.871 13.816 492.183 12.824C493.495 11.832 495.239 11.24 497.415 11.048C498.087 10.984 498.615 11.16 498.999 11.576C499.415 11.96 499.655 12.568 499.719 13.4C499.783 14.2 499.591 14.856 499.143 15.368C498.727 15.848 498.087 16.136 497.223 16.232L496.167 16.328C494.215 16.52 492.743 17.128 491.751 18.152C490.759 19.144 490.263 20.552 490.263 22.376V32.312C490.263 33.304 490.007 34.072 489.495 34.616C488.983 35.128 488.231 35.384 487.239 35.384ZM511.46 35.48C509.508 35.48 507.892 35.128 506.612 34.424C505.332 33.688 504.372 32.6 503.732 31.16C503.124 29.72 502.82 27.928 502.82 25.784V14.168C502.82 13.144 503.076 12.392 503.588 11.912C504.1 11.4 504.836 11.144 505.796 11.144C506.756 11.144 507.492 11.4 508.004 11.912C508.548 12.392 508.82 13.144 508.82 14.168V25.88C508.82 27.544 509.156 28.776 509.828 29.576C510.5 30.376 511.572 30.776 513.044 30.776C514.644 30.776 515.956 30.232 516.98 29.144C518.004 28.024 518.516 26.552 518.516 24.728V14.168C518.516 13.144 518.772 12.392 519.284 11.912C519.796 11.4 520.532 11.144 521.492 11.144C522.452 11.144 523.188 11.4 523.7 11.912C524.244 12.392 524.516 13.144 524.516 14.168V32.312C524.516 34.36 523.54 35.384 521.588 35.384C520.66 35.384 519.94 35.128 519.428 34.616C518.916 34.072 518.66 33.304 518.66 32.312V28.664L519.332 30.104C518.66 31.832 517.636 33.16 516.26 34.088C514.916 35.016 513.316 35.48 511.46 35.48ZM533.833 35.384C532.873 35.384 532.137 35.128 531.625 34.616C531.113 34.072 530.857 33.304 530.857 32.312V14.168C530.857 13.176 531.113 12.424 531.625 11.912C532.137 11.4 532.857 11.144 533.785 11.144C534.713 11.144 535.433 11.4 535.945 11.912C536.457 12.424 536.713 13.176 536.713 14.168V17.672L536.185 16.232C536.825 14.632 537.817 13.368 539.161 12.44C540.505 11.512 542.105 11.048 543.961 11.048C545.849 11.048 547.401 11.496 548.617 12.392C549.833 13.288 550.681 14.664 551.161 16.52H550.489C551.129 14.824 552.185 13.496 553.657 12.536C555.129 11.544 556.825 11.048 558.745 11.048C560.537 11.048 562.009 11.4 563.161 12.104C564.345 12.808 565.225 13.88 565.801 15.32C566.377 16.728 566.665 18.52 566.665 20.696V32.312C566.665 33.304 566.393 34.072 565.849 34.616C565.337 35.128 564.601 35.384 563.641 35.384C562.681 35.384 561.945 35.128 561.433 34.616C560.921 34.072 560.665 33.304 560.665 32.312V20.936C560.665 19.144 560.361 17.832 559.753 17C559.177 16.168 558.185 15.752 556.777 15.752C555.209 15.752 553.977 16.312 553.081 17.432C552.185 18.52 551.737 20.04 551.737 21.992V32.312C551.737 33.304 551.481 34.072 550.969 34.616C550.457 35.128 549.721 35.384 548.761 35.384C547.801 35.384 547.049 35.128 546.505 34.616C545.993 34.072 545.737 33.304 545.737 32.312V20.936C545.737 19.144 545.433 17.832 544.825 17C544.249 16.168 543.273 15.752 541.897 15.752C540.329 15.752 539.097 16.312 538.201 17.432C537.305 18.52 536.857 20.04 536.857 21.992V32.312C536.857 34.36 535.849 35.384 533.833 35.384ZM267.967 100.384C267.071 100.384 266.383 100.128 265.903 99.616C265.423 99.104 265.183 98.4 265.183 97.504V68.656C265.183 67.728 265.439 67.024 265.951 66.544C266.463 66.032 267.167 65.776 268.063 65.776C268.863 65.776 269.487 65.936 269.935 66.256C270.415 66.544 270.847 67.056 271.231 67.792L283.087 89.728H281.551L293.407 67.792C293.791 67.056 294.207 66.544 294.655 66.256C295.103 65.936 295.727 65.776 296.527 65.776C297.423 65.776 298.111 66.032 298.591 66.544C299.071 67.024 299.311 67.728 299.311 68.656V97.504C299.311 98.4 299.071 99.104 298.591 99.616C298.143 100.128 297.455 100.384 296.527 100.384C295.631 100.384 294.943 100.128 294.463 99.616C293.983 99.104 293.743 98.4 293.743 97.504V75.28H294.799L284.719 93.664C284.399 94.208 284.063 94.608 283.711 94.864C283.359 95.12 282.879 95.248 282.271 95.248C281.663 95.248 281.167 95.12 280.783 94.864C280.399 94.576 280.063 94.176 279.775 93.664L269.599 75.232H270.751V97.504C270.751 98.4 270.511 99.104 270.031 99.616C269.583 100.128 268.895 100.384 267.967 100.384ZM313.911 100.48C312.215 100.48 310.695 100.16 309.351 99.52C308.039 98.848 306.999 97.952 306.23 96.832C305.495 95.712 305.127 94.448 305.127 93.04C305.127 91.312 305.575 89.952 306.471 88.96C307.367 87.936 308.823 87.2 310.839 86.752C312.855 86.304 315.559 86.08 318.951 86.08H321.351V89.536H318.999C317.015 89.536 315.431 89.632 314.247 89.824C313.063 90.016 312.215 90.352 311.703 90.832C311.223 91.28 310.983 91.92 310.983 92.752C310.983 93.808 311.351 94.672 312.087 95.344C312.823 96.016 313.847 96.352 315.159 96.352C316.215 96.352 317.143 96.112 317.943 95.632C318.775 95.12 319.431 94.432 319.911 93.568C320.391 92.704 320.631 91.712 320.631 90.592V85.072C320.631 83.472 320.279 82.32 319.575 81.616C318.871 80.912 317.687 80.56 316.023 80.56C315.095 80.56 314.087 80.672 312.999 80.896C311.943 81.12 310.823 81.504 309.639 82.048C309.031 82.336 308.487 82.416 308.007 82.288C307.559 82.16 307.207 81.904 306.951 81.52C306.695 81.104 306.567 80.656 306.567 80.176C306.567 79.696 306.695 79.232 306.951 78.784C307.207 78.304 307.639 77.952 308.247 77.728C309.719 77.12 311.127 76.688 312.471 76.432C313.847 76.176 315.095 76.048 316.215 76.048C318.519 76.048 320.407 76.4 321.879 77.104C323.383 77.808 324.503 78.88 325.239 80.32C325.975 81.728 326.343 83.552 326.343 85.792V97.312C326.343 98.304 326.103 99.072 325.623 99.616C325.143 100.128 324.455 100.384 323.559 100.384C322.663 100.384 321.959 100.128 321.447 99.616C320.967 99.072 320.727 98.304 320.727 97.312V95.008H321.111C320.887 96.128 320.439 97.104 319.767 97.936C319.127 98.736 318.311 99.36 317.319 99.808C316.327 100.256 315.191 100.48 313.911 100.48ZM341.025 100.48C339.649 100.48 338.193 100.336 336.657 100.048C335.121 99.76 333.745 99.264 332.529 98.56C332.017 98.24 331.649 97.872 331.425 97.456C331.233 97.008 331.153 96.576 331.185 96.16C331.249 95.712 331.409 95.328 331.665 95.008C331.953 94.688 332.305 94.48 332.721 94.384C333.169 94.288 333.649 94.368 334.161 94.624C335.441 95.232 336.641 95.664 337.761 95.92C338.881 96.144 339.985 96.256 341.073 96.256C342.609 96.256 343.745 96 344.481 95.488C345.249 94.944 345.633 94.24 345.633 93.376C345.633 92.64 345.377 92.08 344.865 91.696C344.385 91.28 343.649 90.976 342.657 90.784L337.857 89.872C335.873 89.488 334.353 88.768 333.297 87.712C332.273 86.624 331.761 85.232 331.761 83.536C331.761 82 332.177 80.672 333.009 79.552C333.873 78.432 335.057 77.568 336.561 76.96C338.065 76.352 339.793 76.048 341.745 76.048C343.153 76.048 344.465 76.208 345.681 76.528C346.929 76.816 348.129 77.28 349.281 77.92C349.761 78.176 350.081 78.512 350.241 78.928C350.433 79.344 350.481 79.776 350.385 80.224C350.289 80.64 350.097 81.024 349.809 81.376C349.521 81.696 349.153 81.904 348.705 82C348.289 82.064 347.809 81.968 347.265 81.712C346.273 81.2 345.313 80.832 344.385 80.608C343.489 80.384 342.625 80.272 341.793 80.272C340.225 80.272 339.057 80.544 338.289 81.088C337.553 81.632 337.185 82.352 337.185 83.248C337.185 83.92 337.409 84.48 337.857 84.928C338.305 85.376 338.993 85.68 339.921 85.84L344.721 86.752C346.801 87.136 348.369 87.84 349.425 88.864C350.513 89.888 351.057 91.264 351.057 92.992C351.057 95.328 350.145 97.168 348.321 98.512C346.497 99.824 344.065 100.48 341.025 100.48ZM361.353 109.024C360.649 109.024 360.073 108.832 359.625 108.448C359.177 108.096 358.905 107.616 358.809 107.008C358.745 106.4 358.857 105.76 359.145 105.088L362.409 97.84V100.336L353.673 80.128C353.385 79.424 353.289 78.768 353.385 78.16C353.481 77.552 353.769 77.072 354.249 76.72C354.761 76.336 355.449 76.144 356.313 76.144C357.049 76.144 357.641 76.32 358.089 76.672C358.537 76.992 358.937 77.616 359.289 78.544L365.769 94.72H364.329L370.953 78.496C371.305 77.6 371.721 76.992 372.201 76.672C372.681 76.32 373.321 76.144 374.121 76.144C374.825 76.144 375.385 76.336 375.801 76.72C376.217 77.072 376.473 77.552 376.569 78.16C376.665 78.736 376.553 79.376 376.233 80.08L364.569 106.72C364.153 107.616 363.705 108.224 363.225 108.544C362.745 108.864 362.121 109.024 361.353 109.024ZM387.926 100.48C386.23 100.48 384.71 100.16 383.366 99.52C382.054 98.848 381.014 97.952 380.246 96.832C379.51 95.712 379.142 94.448 379.142 93.04C379.142 91.312 379.59 89.952 380.486 88.96C381.382 87.936 382.838 87.2 384.854 86.752C386.87 86.304 389.574 86.08 392.966 86.08H395.366V89.536H393.014C391.03 89.536 389.446 89.632 388.262 89.824C387.078 90.016 386.23 90.352 385.718 90.832C385.238 91.28 384.998 91.92 384.998 92.752C384.998 93.808 385.366 94.672 386.102 95.344C386.838 96.016 387.862 96.352 389.174 96.352C390.23 96.352 391.158 96.112 391.958 95.632C392.79 95.12 393.446 94.432 393.926 93.568C394.406 92.704 394.646 91.712 394.646 90.592V85.072C394.646 83.472 394.294 82.32 393.59 81.616C392.886 80.912 391.702 80.56 390.038 80.56C389.11 80.56 388.102 80.672 387.014 80.896C385.958 81.12 384.838 81.504 383.654 82.048C383.046 82.336 382.502 82.416 382.022 82.288C381.574 82.16 381.222 81.904 380.966 81.52C380.71 81.104 380.582 80.656 380.582 80.176C380.582 79.696 380.71 79.232 380.966 78.784C381.222 78.304 381.654 77.952 382.262 77.728C383.734 77.12 385.142 76.688 386.486 76.432C387.862 76.176 389.11 76.048 390.23 76.048C392.534 76.048 394.422 76.4 395.894 77.104C397.398 77.808 398.518 78.88 399.254 80.32C399.99 81.728 400.358 83.552 400.358 85.792V97.312C400.358 98.304 400.118 99.072 399.638 99.616C399.158 100.128 398.47 100.384 397.574 100.384C396.678 100.384 395.974 100.128 395.462 99.616C394.982 99.072 394.742 98.304 394.742 97.312V95.008H395.126C394.902 96.128 394.454 97.104 393.782 97.936C393.142 98.736 392.326 99.36 391.334 99.808C390.342 100.256 389.206 100.48 387.926 100.48ZM409.52 100.384C408.528 100.384 407.76 100.128 407.216 99.616C406.704 99.072 406.448 98.304 406.448 97.312V79.168C406.448 78.176 406.704 77.424 407.216 76.912C407.728 76.4 408.448 76.144 409.376 76.144C410.304 76.144 411.024 76.4 411.536 76.912C412.048 77.424 412.304 78.176 412.304 79.168V82.192H411.824C412.272 80.272 413.152 78.816 414.464 77.824C415.776 76.832 417.52 76.24 419.696 76.048C420.368 75.984 420.896 76.16 421.28 76.576C421.696 76.96 421.936 77.568 422 78.4C422.064 79.2 421.872 79.856 421.424 80.368C421.008 80.848 420.368 81.136 419.504 81.232L418.448 81.328C416.496 81.52 415.024 82.128 414.032 83.152C413.04 84.144 412.544 85.552 412.544 87.376V97.312C412.544 98.304 412.288 99.072 411.776 99.616C411.264 100.128 410.512 100.384 409.52 100.384ZM432.739 100.48C431.043 100.48 429.523 100.16 428.179 99.52C426.867 98.848 425.827 97.952 425.059 96.832C424.323 95.712 423.955 94.448 423.955 93.04C423.955 91.312 424.403 89.952 425.299 88.96C426.195 87.936 427.651 87.2 429.667 86.752C431.683 86.304 434.387 86.08 437.779 86.08H440.179V89.536H437.827C435.843 89.536 434.259 89.632 433.075 89.824C431.891 90.016 431.043 90.352 430.531 90.832C430.051 91.28 429.811 91.92 429.811 92.752C429.811 93.808 430.179 94.672 430.915 95.344C431.651 96.016 432.675 96.352 433.987 96.352C435.043 96.352 435.971 96.112 436.771 95.632C437.603 95.12 438.259 94.432 438.739 93.568C439.219 92.704 439.459 91.712 439.459 90.592V85.072C439.459 83.472 439.107 82.32 438.403 81.616C437.699 80.912 436.515 80.56 434.851 80.56C433.923 80.56 432.915 80.672 431.827 80.896C430.771 81.12 429.651 81.504 428.467 82.048C427.859 82.336 427.315 82.416 426.835 82.288C426.387 82.16 426.035 81.904 425.779 81.52C425.523 81.104 425.395 80.656 425.395 80.176C425.395 79.696 425.523 79.232 425.779 78.784C426.035 78.304 426.467 77.952 427.075 77.728C428.547 77.12 429.955 76.688 431.299 76.432C432.675 76.176 433.923 76.048 435.043 76.048C437.347 76.048 439.235 76.4 440.707 77.104C442.211 77.808 443.331 78.88 444.067 80.32C444.803 81.728 445.171 83.552 445.171 85.792V97.312C445.171 98.304 444.931 99.072 444.451 99.616C443.971 100.128 443.283 100.384 442.387 100.384C441.491 100.384 440.787 100.128 440.275 99.616C439.795 99.072 439.555 98.304 439.555 97.312V95.008H439.939C439.715 96.128 439.267 97.104 438.595 97.936C437.955 98.736 437.139 99.36 436.147 99.808C435.155 100.256 434.019 100.48 432.739 100.48ZM454.237 100.384C453.277 100.384 452.541 100.128 452.029 99.616C451.517 99.072 451.261 98.304 451.261 97.312V68.8C451.261 67.808 451.517 67.056 452.029 66.544C452.541 66.032 453.277 65.776 454.237 65.776C455.197 65.776 455.933 66.032 456.445 66.544C456.989 67.056 457.261 67.808 457.261 68.8V86.512H457.357L465.277 78.16C465.917 77.52 466.477 77.024 466.957 76.672C467.437 76.32 468.093 76.144 468.925 76.144C469.757 76.144 470.381 76.368 470.797 76.816C471.245 77.232 471.469 77.744 471.469 78.352C471.469 78.96 471.181 79.568 470.605 80.176L462.253 89.008V86.512L471.421 96.4C471.997 97.008 472.253 97.632 472.189 98.272C472.157 98.88 471.901 99.392 471.421 99.808C470.941 100.192 470.333 100.384 469.597 100.384C468.701 100.384 467.981 100.208 467.437 99.856C466.925 99.504 466.349 98.976 465.709 98.272L457.357 89.536H457.261V97.312C457.261 99.36 456.253 100.384 454.237 100.384ZM484.489 100.48C482.793 100.48 481.273 100.16 479.929 99.52C478.617 98.848 477.577 97.952 476.809 96.832C476.073 95.712 475.705 94.448 475.705 93.04C475.705 91.312 476.153 89.952 477.049 88.96C477.945 87.936 479.401 87.2 481.417 86.752C483.433 86.304 486.137 86.08 489.529 86.08H491.929V89.536H489.577C487.593 89.536 486.009 89.632 484.825 89.824C483.641 90.016 482.793 90.352 482.281 90.832C481.801 91.28 481.561 91.92 481.561 92.752C481.561 93.808 481.929 94.672 482.665 95.344C483.401 96.016 484.425 96.352 485.737 96.352C486.793 96.352 487.721 96.112 488.521 95.632C489.353 95.12 490.009 94.432 490.489 93.568C490.969 92.704 491.209 91.712 491.209 90.592V85.072C491.209 83.472 490.857 82.32 490.153 81.616C489.449 80.912 488.265 80.56 486.601 80.56C485.673 80.56 484.665 80.672 483.577 80.896C482.521 81.12 481.401 81.504 480.217 82.048C479.609 82.336 479.065 82.416 478.585 82.288C478.137 82.16 477.785 81.904 477.529 81.52C477.273 81.104 477.145 80.656 477.145 80.176C477.145 79.696 477.273 79.232 477.529 78.784C477.785 78.304 478.217 77.952 478.825 77.728C480.297 77.12 481.705 76.688 483.049 76.432C484.425 76.176 485.673 76.048 486.793 76.048C489.097 76.048 490.985 76.4 492.457 77.104C493.961 77.808 495.081 78.88 495.817 80.32C496.553 81.728 496.921 83.552 496.921 85.792V97.312C496.921 98.304 496.681 99.072 496.201 99.616C495.721 100.128 495.033 100.384 494.137 100.384C493.241 100.384 492.537 100.128 492.025 99.616C491.545 99.072 491.305 98.304 491.305 97.312V95.008H491.689C491.465 96.128 491.017 97.104 490.345 97.936C489.705 98.736 488.889 99.36 487.897 99.808C486.905 100.256 485.769 100.48 484.489 100.48ZM513.763 100.48C511.683 100.48 509.939 100.128 508.531 99.424C507.155 98.72 506.131 97.696 505.459 96.352C504.787 94.976 504.451 93.28 504.451 91.264V81.04H501.955C501.187 81.04 500.595 80.848 500.179 80.464C499.763 80.048 499.555 79.488 499.555 78.784C499.555 78.048 499.763 77.488 500.179 77.104C500.595 76.72 501.187 76.528 501.955 76.528H504.451V72.16C504.451 71.168 504.707 70.416 505.219 69.904C505.763 69.392 506.515 69.136 507.475 69.136C508.435 69.136 509.171 69.392 509.683 69.904C510.195 70.416 510.451 71.168 510.451 72.16V76.528H515.539C516.307 76.528 516.899 76.72 517.315 77.104C517.731 77.488 517.939 78.048 517.939 78.784C517.939 79.488 517.731 80.048 517.315 80.464C516.899 80.848 516.307 81.04 515.539 81.04H510.451V90.928C510.451 92.464 510.787 93.616 511.459 94.384C512.131 95.152 513.219 95.536 514.723 95.536C515.267 95.536 515.747 95.488 516.163 95.392C516.579 95.296 516.947 95.232 517.267 95.2C517.651 95.168 517.971 95.296 518.227 95.584C518.483 95.84 518.611 96.384 518.611 97.216C518.611 97.856 518.499 98.432 518.275 98.944C518.083 99.424 517.715 99.76 517.171 99.952C516.755 100.08 516.211 100.192 515.539 100.288C514.867 100.416 514.275 100.48 513.763 100.48ZM16.864 165.48C13.6 165.48 10.736 164.76 8.272 163.32C5.84 161.88 3.952 159.864 2.608 157.272C1.264 154.648 0.592 151.576 0.592 148.056C0.592 145.4 0.976 143.016 1.744 140.904C2.512 138.76 3.6 136.936 5.008 135.432C6.448 133.896 8.16 132.728 10.144 131.928C12.16 131.096 14.4 130.68 16.864 130.68C20.16 130.68 23.024 131.4 25.456 132.84C27.888 134.248 29.776 136.248 31.12 138.84C32.464 141.432 33.136 144.488 33.136 148.008C33.136 150.664 32.752 153.064 31.984 155.208C31.216 157.352 30.112 159.192 28.672 160.728C27.264 162.264 25.552 163.448 23.536 164.28C21.552 165.08 19.328 165.48 16.864 165.48ZM16.864 160.2C18.944 160.2 20.704 159.72 22.144 158.76C23.616 157.8 24.736 156.408 25.504 154.584C26.304 152.76 26.704 150.584 26.704 148.056C26.704 144.216 25.84 141.24 24.112 139.128C22.416 137.016 20 135.96 16.864 135.96C14.816 135.96 13.056 136.44 11.584 137.4C10.112 138.328 8.976 139.704 8.176 141.528C7.408 143.32 7.024 145.496 7.024 148.056C7.024 151.864 7.888 154.84 9.616 156.984C11.344 159.128 13.76 160.2 16.864 160.2ZM41.7835 165.384C40.8235 165.384 40.0875 165.128 39.5755 164.616C39.0635 164.072 38.8075 163.304 38.8075 162.312V144.168C38.8075 143.176 39.0635 142.424 39.5755 141.912C40.0875 141.4 40.8075 141.144 41.7355 141.144C42.6635 141.144 43.3835 141.4 43.8955 141.912C44.4075 142.424 44.6635 143.176 44.6635 144.168V147.432L44.1355 146.232C44.8395 144.536 45.9275 143.256 47.3995 142.392C48.9035 141.496 50.5995 141.048 52.4875 141.048C54.3755 141.048 55.9275 141.4 57.1435 142.104C58.3595 142.808 59.2715 143.88 59.8795 145.32C60.4875 146.728 60.7915 148.52 60.7915 150.696V162.312C60.7915 163.304 60.5355 164.072 60.0235 164.616C59.5115 165.128 58.7755 165.384 57.8155 165.384C56.8555 165.384 56.1035 165.128 55.5595 164.616C55.0475 164.072 54.7915 163.304 54.7915 162.312V150.984C54.7915 149.16 54.4395 147.832 53.7355 147C53.0635 146.168 52.0075 145.752 50.5675 145.752C48.8075 145.752 47.3995 146.312 46.3435 147.432C45.3195 148.52 44.8075 149.976 44.8075 151.8V162.312C44.8075 164.36 43.7995 165.384 41.7835 165.384ZM74.9016 165.48C72.2456 165.48 70.2456 164.728 68.9016 163.224C67.5576 161.688 66.8856 159.448 66.8856 156.504V133.8C66.8856 132.808 67.1416 132.056 67.6536 131.544C68.1656 131.032 68.9016 130.776 69.8616 130.776C70.8216 130.776 71.5576 131.032 72.0696 131.544C72.6136 132.056 72.8856 132.808 72.8856 133.8V156.216C72.8856 157.688 73.1896 158.776 73.7976 159.48C74.4376 160.184 75.3336 160.536 76.4856 160.536C76.7416 160.536 76.9816 160.536 77.2056 160.536C77.4296 160.504 77.6536 160.472 77.8776 160.44C78.3256 160.376 78.6296 160.504 78.7896 160.824C78.9496 161.112 79.0296 161.72 79.0296 162.648C79.0296 163.448 78.8696 164.072 78.5496 164.52C78.2296 164.968 77.7016 165.24 76.9656 165.336C76.6456 165.368 76.3096 165.4 75.9576 165.432C75.6056 165.464 75.2536 165.48 74.9016 165.48ZM85.1898 165.336C84.2298 165.336 83.4938 165.048 82.9818 164.472C82.4698 163.896 82.2138 163.096 82.2138 162.072V144.456C82.2138 143.4 82.4698 142.6 82.9818 142.056C83.4938 141.48 84.2298 141.192 85.1898 141.192C86.1498 141.192 86.8858 141.48 87.3978 142.056C87.9418 142.6 88.2138 143.4 88.2138 144.456V162.072C88.2138 163.096 87.9578 163.896 87.4458 164.472C86.9338 165.048 86.1818 165.336 85.1898 165.336ZM85.1898 136.728C84.0698 136.728 83.1898 136.456 82.5498 135.912C81.9418 135.336 81.6378 134.552 81.6378 133.56C81.6378 132.536 81.9418 131.752 82.5498 131.208C83.1898 130.664 84.0698 130.392 85.1898 130.392C86.3418 130.392 87.2218 130.664 87.8298 131.208C88.4378 131.752 88.7418 132.536 88.7418 133.56C88.7418 134.552 88.4378 135.336 87.8298 135.912C87.2218 136.456 86.3418 136.728 85.1898 136.728ZM97.4241 165.384C96.4641 165.384 95.7281 165.128 95.2161 164.616C94.7041 164.072 94.4481 163.304 94.4481 162.312V144.168C94.4481 143.176 94.7041 142.424 95.2161 141.912C95.7281 141.4 96.4481 141.144 97.3761 141.144C98.3041 141.144 99.0241 141.4 99.5361 141.912C100.048 142.424 100.304 143.176 100.304 144.168V147.432L99.7761 146.232C100.48 144.536 101.568 143.256 103.04 142.392C104.544 141.496 106.24 141.048 108.128 141.048C110.016 141.048 111.568 141.4 112.784 142.104C114 142.808 114.912 143.88 115.52 145.32C116.128 146.728 116.432 148.52 116.432 150.696V162.312C116.432 163.304 116.176 164.072 115.664 164.616C115.152 165.128 114.416 165.384 113.456 165.384C112.496 165.384 111.744 165.128 111.2 164.616C110.688 164.072 110.432 163.304 110.432 162.312V150.984C110.432 149.16 110.08 147.832 109.376 147C108.704 146.168 107.648 145.752 106.208 145.752C104.448 145.752 103.04 146.312 101.984 147.432C100.96 148.52 100.448 149.976 100.448 151.8V162.312C100.448 164.36 99.4401 165.384 97.4241 165.384ZM134.094 165.48C131.438 165.48 129.15 164.984 127.23 163.992C125.31 163 123.822 161.592 122.766 159.768C121.742 157.944 121.23 155.784 121.23 153.288C121.23 150.856 121.726 148.728 122.718 146.904C123.742 145.08 125.134 143.656 126.894 142.632C128.686 141.576 130.718 141.048 132.99 141.048C134.654 141.048 136.142 141.32 137.454 141.864C138.798 142.408 139.934 143.192 140.862 144.216C141.822 145.24 142.542 146.488 143.022 147.96C143.534 149.4 143.79 151.032 143.79 152.856C143.79 153.432 143.582 153.88 143.166 154.2C142.782 154.488 142.222 154.632 141.486 154.632H126.078V151.176H139.566L138.798 151.896C138.798 150.424 138.574 149.192 138.126 148.2C137.71 147.208 137.086 146.456 136.254 145.944C135.454 145.4 134.446 145.128 133.23 145.128C131.886 145.128 130.734 145.448 129.774 146.088C128.846 146.696 128.126 147.576 127.614 148.728C127.134 149.848 126.894 151.192 126.894 152.76V153.096C126.894 155.72 127.502 157.688 128.718 159C129.966 160.28 131.79 160.92 134.19 160.92C135.022 160.92 135.95 160.824 136.974 160.632C138.03 160.408 139.022 160.04 139.95 159.528C140.622 159.144 141.214 158.984 141.726 159.048C142.238 159.08 142.638 159.256 142.926 159.576C143.246 159.896 143.438 160.296 143.502 160.776C143.566 161.224 143.47 161.688 143.214 162.168C142.99 162.648 142.59 163.064 142.014 163.416C140.894 164.12 139.598 164.648 138.126 165C136.686 165.32 135.342 165.48 134.094 165.48Z" fill="black"/>
<path d="M4.768 100.384C3.776 100.384 3.008 100.112 2.464 99.568C1.952 98.992 1.696 98.208 1.696 97.216V69.28C1.696 68.256 1.968 67.488 2.512 66.976C3.056 66.432 3.824 66.16 4.816 66.16H16.384C20.096 66.16 22.96 67.088 24.976 68.944C26.992 70.8 28 73.392 28 76.72C28 80.048 26.992 82.656 24.976 84.544C22.96 86.4 20.096 87.328 16.384 87.328H7.84V97.216C7.84 98.208 7.584 98.992 7.072 99.568C6.56 100.112 5.792 100.384 4.768 100.384ZM7.84 82.48H15.424C17.6 82.48 19.248 82 20.368 81.04C21.488 80.048 22.048 78.608 22.048 76.72C22.048 74.832 21.488 73.408 20.368 72.448C19.248 71.488 17.6 71.008 15.424 71.008H7.84V82.48ZM42.8286 100.48C40.1726 100.48 37.8846 99.984 35.9646 98.992C34.0446 98 32.5566 96.592 31.5006 94.768C30.4766 92.944 29.9646 90.784 29.9646 88.288C29.9646 85.856 30.4606 83.728 31.4526 81.904C32.4766 80.08 33.8686 78.656 35.6286 77.632C37.4206 76.576 39.4526 76.048 41.7246 76.048C43.3886 76.048 44.8766 76.32 46.1886 76.864C47.5326 77.408 48.6686 78.192 49.5966 79.216C50.5566 80.24 51.2766 81.488 51.7566 82.96C52.2686 84.4 52.5246 86.032 52.5246 87.856C52.5246 88.432 52.3166 88.88 51.9006 89.2C51.5166 89.488 50.9566 89.632 50.2206 89.632H34.8126V86.176H48.3006L47.5326 86.896C47.5326 85.424 47.3086 84.192 46.8606 83.2C46.4446 82.208 45.8206 81.456 44.9886 80.944C44.1886 80.4 43.1806 80.128 41.9646 80.128C40.6206 80.128 39.4686 80.448 38.5086 81.088C37.5806 81.696 36.8606 82.576 36.3486 83.728C35.8686 84.848 35.6286 86.192 35.6286 87.76V88.096C35.6286 90.72 36.2366 92.688 37.4526 94C38.7006 95.28 40.5246 95.92 42.9246 95.92C43.7566 95.92 44.6846 95.824 45.7086 95.632C46.7646 95.408 47.7566 95.04 48.6846 94.528C49.3566 94.144 49.9486 93.984 50.4606 94.048C50.9726 94.08 51.3726 94.256 51.6606 94.576C51.9806 94.896 52.1726 95.296 52.2366 95.776C52.3006 96.224 52.2046 96.688 51.9486 97.168C51.7246 97.648 51.3246 98.064 50.7486 98.416C49.6286 99.12 48.3326 99.648 46.8606 100C45.4206 100.32 44.0766 100.48 42.8286 100.48ZM60.2523 100.384C59.2923 100.384 58.5563 100.128 58.0443 99.616C57.5323 99.072 57.2763 98.304 57.2763 97.312V79.168C57.2763 78.176 57.5323 77.424 58.0443 76.912C58.5563 76.4 59.2763 76.144 60.2043 76.144C61.1323 76.144 61.8523 76.4 62.3643 76.912C62.8763 77.424 63.1323 78.176 63.1323 79.168V82.432L62.6043 81.232C63.3083 79.536 64.3963 78.256 65.8683 77.392C67.3723 76.496 69.0683 76.048 70.9563 76.048C72.8443 76.048 74.3963 76.4 75.6123 77.104C76.8283 77.808 77.7403 78.88 78.3483 80.32C78.9563 81.728 79.2603 83.52 79.2603 85.696V97.312C79.2603 98.304 79.0043 99.072 78.4923 99.616C77.9803 100.128 77.2443 100.384 76.2843 100.384C75.3243 100.384 74.5723 100.128 74.0283 99.616C73.5163 99.072 73.2603 98.304 73.2603 97.312V85.984C73.2603 84.16 72.9083 82.832 72.2043 82C71.5323 81.168 70.4763 80.752 69.0363 80.752C67.2763 80.752 65.8683 81.312 64.8123 82.432C63.7883 83.52 63.2763 84.976 63.2763 86.8V97.312C63.2763 99.36 62.2683 100.384 60.2523 100.384ZM96.2984 109.12C94.5704 109.12 92.8904 108.96 91.2584 108.64C89.6584 108.32 88.2024 107.824 86.8904 107.152C86.2824 106.832 85.8664 106.448 85.6424 106C85.4504 105.552 85.3864 105.088 85.4504 104.608C85.5464 104.16 85.7384 103.76 86.0264 103.408C86.3464 103.056 86.7304 102.816 87.1784 102.688C87.6264 102.56 88.0904 102.624 88.5704 102.88C89.9784 103.584 91.3064 104.032 92.5544 104.224C93.8344 104.448 94.9224 104.56 95.8184 104.56C97.9624 104.56 99.5624 104.032 100.618 102.976C101.706 101.952 102.25 100.416 102.25 98.368V94.048H102.682C102.202 95.68 101.194 96.992 99.6584 97.984C98.1544 98.944 96.4424 99.424 94.5224 99.424C92.4104 99.424 90.5704 98.944 89.0024 97.984C87.4344 96.992 86.2184 95.616 85.3544 93.856C84.4904 92.096 84.0584 90.048 84.0584 87.712C84.0584 85.952 84.2984 84.368 84.7784 82.96C85.2904 81.52 85.9944 80.288 86.8904 79.264C87.8184 78.24 88.9224 77.456 90.2024 76.912C91.5144 76.336 92.9544 76.048 94.5224 76.048C96.5064 76.048 98.2344 76.544 99.7064 77.536C101.21 78.496 102.186 79.776 102.634 81.376L102.154 82.576V79.168C102.154 78.176 102.41 77.424 102.922 76.912C103.466 76.4 104.202 76.144 105.13 76.144C106.09 76.144 106.826 76.4 107.338 76.912C107.85 77.424 108.106 78.176 108.106 79.168V97.648C108.106 101.456 107.098 104.32 105.082 106.24C103.066 108.16 100.138 109.12 96.2984 109.12ZM96.1544 94.864C97.4024 94.864 98.4744 94.576 99.3704 94C100.266 93.424 100.954 92.608 101.434 91.552C101.946 90.464 102.202 89.184 102.202 87.712C102.202 85.504 101.658 83.776 100.57 82.528C99.4824 81.248 98.0104 80.608 96.1544 80.608C94.9064 80.608 93.8344 80.896 92.9384 81.472C92.0424 82.048 91.3384 82.864 90.8264 83.92C90.3464 84.976 90.1064 86.24 90.1064 87.712C90.1064 89.92 90.6504 91.664 91.7384 92.944C92.8264 94.224 94.2984 94.864 96.1544 94.864ZM122.051 100.48C120.355 100.48 118.835 100.16 117.491 99.52C116.179 98.848 115.139 97.952 114.371 96.832C113.635 95.712 113.267 94.448 113.267 93.04C113.267 91.312 113.715 89.952 114.611 88.96C115.507 87.936 116.963 87.2 118.979 86.752C120.995 86.304 123.699 86.08 127.091 86.08H129.491V89.536H127.139C125.155 89.536 123.571 89.632 122.387 89.824C121.203 90.016 120.355 90.352 119.843 90.832C119.363 91.28 119.123 91.92 119.123 92.752C119.123 93.808 119.491 94.672 120.227 95.344C120.963 96.016 121.987 96.352 123.299 96.352C124.355 96.352 125.283 96.112 126.083 95.632C126.915 95.12 127.571 94.432 128.051 93.568C128.531 92.704 128.771 91.712 128.771 90.592V85.072C128.771 83.472 128.419 82.32 127.715 81.616C127.011 80.912 125.827 80.56 124.163 80.56C123.235 80.56 122.227 80.672 121.139 80.896C120.083 81.12 118.963 81.504 117.779 82.048C117.171 82.336 116.627 82.416 116.147 82.288C115.699 82.16 115.347 81.904 115.091 81.52C114.835 81.104 114.707 80.656 114.707 80.176C114.707 79.696 114.835 79.232 115.091 78.784C115.347 78.304 115.779 77.952 116.387 77.728C117.859 77.12 119.267 76.688 120.611 76.432C121.987 76.176 123.235 76.048 124.355 76.048C126.659 76.048 128.547 76.4 130.019 77.104C131.523 77.808 132.643 78.88 133.379 80.32C134.115 81.728 134.483 83.552 134.483 85.792V97.312C134.483 98.304 134.243 99.072 133.763 99.616C133.283 100.128 132.595 100.384 131.699 100.384C130.803 100.384 130.099 100.128 129.587 99.616C129.107 99.072 128.867 98.304 128.867 97.312V95.008H129.251C129.027 96.128 128.579 97.104 127.907 97.936C127.267 98.736 126.451 99.36 125.459 99.808C124.467 100.256 123.331 100.48 122.051 100.48ZM149.597 100.48C147.549 100.48 145.741 99.984 144.173 98.992C142.637 98 141.437 96.592 140.573 94.768C139.709 92.912 139.277 90.736 139.277 88.24C139.277 85.712 139.709 83.552 140.573 81.76C141.437 79.936 142.637 78.528 144.173 77.536C145.741 76.544 147.549 76.048 149.597 76.048C151.549 76.048 153.245 76.528 154.685 77.488C156.157 78.448 157.149 79.712 157.661 81.28H157.133V68.8C157.133 67.808 157.389 67.056 157.901 66.544C158.413 66.032 159.149 65.776 160.109 65.776C161.069 65.776 161.805 66.032 162.317 66.544C162.861 67.056 163.133 67.808 163.133 68.8V97.312C163.133 98.304 162.877 99.072 162.365 99.616C161.853 100.128 161.117 100.384 160.157 100.384C159.197 100.384 158.461 100.128 157.949 99.616C157.437 99.072 157.181 98.304 157.181 97.312V93.568L157.709 95.008C157.229 96.672 156.253 98 154.781 98.992C153.309 99.984 151.581 100.48 149.597 100.48ZM151.277 95.92C152.461 95.92 153.501 95.632 154.397 95.056C155.293 94.48 155.981 93.632 156.461 92.512C156.973 91.36 157.229 89.936 157.229 88.24C157.229 85.68 156.685 83.776 155.597 82.528C154.509 81.248 153.069 80.608 151.277 80.608C150.093 80.608 149.053 80.896 148.157 81.472C147.261 82.016 146.557 82.864 146.045 84.016C145.565 85.136 145.325 86.544 145.325 88.24C145.325 90.768 145.869 92.688 146.957 94C148.045 95.28 149.485 95.92 151.277 95.92ZM177.85 100.48C175.898 100.48 174.282 100.128 173.002 99.424C171.722 98.688 170.762 97.6 170.122 96.16C169.514 94.72 169.21 92.928 169.21 90.784V79.168C169.21 78.144 169.466 77.392 169.978 76.912C170.49 76.4 171.226 76.144 172.186 76.144C173.146 76.144 173.882 76.4 174.394 76.912C174.938 77.392 175.21 78.144 175.21 79.168V90.88C175.21 92.544 175.546 93.776 176.218 94.576C176.89 95.376 177.962 95.776 179.434 95.776C181.034 95.776 182.346 95.232 183.37 94.144C184.394 93.024 184.906 91.552 184.906 89.728V79.168C184.906 78.144 185.162 77.392 185.674 76.912C186.186 76.4 186.922 76.144 187.882 76.144C188.842 76.144 189.578 76.4 190.09 76.912C190.634 77.392 190.906 78.144 190.906 79.168V97.312C190.906 99.36 189.93 100.384 187.978 100.384C187.05 100.384 186.33 100.128 185.818 99.616C185.306 99.072 185.05 98.304 185.05 97.312V93.664L185.722 95.104C185.05 96.832 184.026 98.16 182.65 99.088C181.306 100.016 179.706 100.48 177.85 100.48ZM204.879 100.48C203.183 100.48 201.663 100.16 200.319 99.52C199.007 98.848 197.967 97.952 197.199 96.832C196.463 95.712 196.095 94.448 196.095 93.04C196.095 91.312 196.543 89.952 197.439 88.96C198.335 87.936 199.791 87.2 201.807 86.752C203.823 86.304 206.527 86.08 209.919 86.08H212.319V89.536H209.967C207.983 89.536 206.399 89.632 205.215 89.824C204.031 90.016 203.183 90.352 202.671 90.832C202.191 91.28 201.951 91.92 201.951 92.752C201.951 93.808 202.319 94.672 203.055 95.344C203.791 96.016 204.815 96.352 206.127 96.352C207.183 96.352 208.111 96.112 208.911 95.632C209.743 95.12 210.399 94.432 210.879 93.568C211.359 92.704 211.599 91.712 211.599 90.592V85.072C211.599 83.472 211.247 82.32 210.543 81.616C209.839 80.912 208.655 80.56 206.991 80.56C206.063 80.56 205.055 80.672 203.967 80.896C202.911 81.12 201.791 81.504 200.607 82.048C199.999 82.336 199.455 82.416 198.975 82.288C198.527 82.16 198.175 81.904 197.919 81.52C197.663 81.104 197.535 80.656 197.535 80.176C197.535 79.696 197.663 79.232 197.919 78.784C198.175 78.304 198.607 77.952 199.215 77.728C200.687 77.12 202.095 76.688 203.439 76.432C204.815 76.176 206.063 76.048 207.183 76.048C209.487 76.048 211.375 76.4 212.847 77.104C214.351 77.808 215.471 78.88 216.207 80.32C216.943 81.728 217.311 83.552 217.311 85.792V97.312C217.311 98.304 217.071 99.072 216.591 99.616C216.111 100.128 215.423 100.384 214.527 100.384C213.631 100.384 212.927 100.128 212.415 99.616C211.935 99.072 211.695 98.304 211.695 97.312V95.008H212.079C211.855 96.128 211.407 97.104 210.735 97.936C210.095 98.736 209.279 99.36 208.287 99.808C207.295 100.256 206.159 100.48 204.879 100.48ZM226.377 100.384C225.417 100.384 224.681 100.128 224.169 99.616C223.657 99.072 223.401 98.304 223.401 97.312V79.168C223.401 78.176 223.657 77.424 224.169 76.912C224.681 76.4 225.401 76.144 226.329 76.144C227.257 76.144 227.977 76.4 228.489 76.912C229.001 77.424 229.257 78.176 229.257 79.168V82.432L228.729 81.232C229.433 79.536 230.521 78.256 231.993 77.392C233.497 76.496 235.193 76.048 237.081 76.048C238.969 76.048 240.521 76.4 241.737 77.104C242.953 77.808 243.865 78.88 244.473 80.32C245.081 81.728 245.385 83.52 245.385 85.696V97.312C245.385 98.304 245.129 99.072 244.617 99.616C244.105 100.128 243.369 100.384 242.409 100.384C241.449 100.384 240.697 100.128 240.153 99.616C239.641 99.072 239.385 98.304 239.385 97.312V85.984C239.385 84.16 239.033 82.832 238.329 82C237.657 81.168 236.601 80.752 235.161 80.752C233.401 80.752 231.993 81.312 230.937 82.432C229.913 83.52 229.401 84.976 229.401 86.8V97.312C229.401 99.36 228.393 100.384 226.377 100.384Z" fill="#FF7A00"/>
</svg>
