<svg width="485" height="393" viewBox="0 0 485 393" fill="none" xmlns="http://www.w3.org/2000/svg">
<path opacity="0.24" d="M484.791 291.23C484.539 293.984 484.066 296.711 483.377 299.382C481.789 305.553 479.395 311.469 476.264 316.964C458.179 349.813 422.765 368.782 387.129 376.555C351.493 384.328 314.692 382.625 278.335 384.356C229.22 386.669 180.229 395.247 131.114 392.443C107.84 391.102 84.7647 387.222 62.2688 380.867C47.1981 376.583 16.0342 371.031 6.92063 356.466C1.22132 347.398 0.278848 330.4 0.0921318 316.085C0.0298929 310.209 0.092132 304.796 0.0298932 300.521C-0.352431 278.118 2.84842 255.179 14.5049 235.84C19.3684 227.817 25.5123 220.637 29.8067 212.253C47.4203 177.775 28.9888 133.933 40.7697 96.8457C45.4732 82.0403 54.7823 69.2523 64.9361 57.7966C86.4086 33.5992 113.242 13.6305 143.891 5.41356C162.98 0.287223 182.95 -0.13843 202.662 0.0281299C256.543 0.453783 311.864 5.58012 360.26 30.2032C408.655 54.8263 449.172 102.62 453.191 158.528C454.294 173.695 452.782 189.129 455.859 203.999C462.278 234.369 487.547 260.241 484.791 291.23Z" fill="#0EB019"/>
<path opacity="0.24" d="M483 299C481.413 305.196 479.021 311.136 475.891 316.653C457.817 349.637 422.424 368.683 386.809 376.488C351.194 384.293 314.414 382.583 278.079 384.32C228.993 386.643 180.031 395.256 130.944 392.441C107.684 391.094 84.6227 387.199 62.14 380.818C47.0782 376.516 15.9326 370.941 6.82447 356.317C1.12853 347.212 0.186607 330.144 0 315.77C3.41223 316.328 6.79781 317.173 9.77463 317.471C19.8603 318.493 30.0703 318.558 40.1826 318.883C61.6157 319.595 83.0547 320.075 104.5 320.323C189.894 321.271 275.224 318.335 360.488 311.515C401.4 308.238 442.237 304.067 483 299Z" fill="#0EB019"/>
<path d="M269 191H245V346H269V191Z" fill="#0EB019"/>
<path d="M269 191H245V346H269V191Z" fill="url(#paint0_linear_30_10)"/>
<path d="M325 142.861V204H161V142.861C161.001 138.674 161.792 134.529 163.326 130.661C164.861 126.794 167.109 123.28 169.943 120.322C172.777 117.363 176.141 115.017 179.843 113.417C183.545 111.818 187.512 110.996 191.518 111H294.482C302.57 111 310.327 114.356 316.049 120.33C321.771 126.304 324.991 134.408 325 142.861Z" fill="#0EB019"/>
<path d="M190.504 116C197.532 116.002 204.272 118.933 209.24 124.148C214.209 129.363 217 136.435 217 143.809V204H164V143.809C164 136.434 166.792 129.36 171.763 124.145C176.734 118.93 183.475 116 190.504 116Z" fill="url(#paint1_linear_30_10)"/>
<path d="M325 142.84V204H223.802V139.26C220.779 122.348 209.377 114.58 200 111H294.437C302.534 110.995 310.301 114.346 316.032 120.316C321.763 126.287 324.988 134.388 325 142.84Z" fill="url(#paint2_linear_30_10)"/>
<path d="M325 143.242V145.512C324.573 146.432 323.977 147.252 323.249 147.923C320.683 150.231 316.98 150.259 313.679 149.698C307.471 148.614 301.42 145.783 297.043 141.009C291.395 134.843 289.11 126.313 287.726 118.045C287.201 115.055 286.395 112.383 287.726 111H294.731C302.75 110.998 310.443 114.392 316.118 120.437C321.794 126.483 324.988 134.685 325 143.242Z" fill="url(#paint3_linear_30_10)"/>
<path d="M219.749 196H111.251C108.903 196 107 197.791 107 200C107 202.209 108.903 204 111.251 204H219.749C222.097 204 224 202.209 224 200C224 197.791 222.097 196 219.749 196Z" fill="#0EB019"/>
<path d="M219.749 196H111.251C108.903 196 107 197.791 107 200C107 202.209 108.903 204 111.251 204H219.749C222.097 204 224 202.209 224 200C224 197.791 222.097 196 219.749 196Z" fill="url(#paint4_linear_30_10)"/>
<path opacity="0.24" d="M261.165 340.06C245.76 342.843 230.471 346.455 214.89 347.955C204.786 348.941 193.617 349.464 186.285 356.57C184.524 358.078 183.365 360.183 183.024 362.491C182.605 367.425 187.691 370.849 192.231 372.655C205.508 377.954 219.928 379.484 234.21 380.391C257.407 381.891 280.671 381.911 303.926 381.931L373.174 382C393.617 382 416.315 381.161 430.959 366.744C433.888 363.882 436.407 360.369 436.915 356.303C437.715 349.731 432.775 343.544 426.82 340.79C416.481 336.024 401.027 337.011 389.77 335.748C375.126 334.123 360.43 333.218 345.682 333.034C317.354 332.684 289.056 335.037 261.165 340.06Z" fill="#0EB019"/>
<path d="M281.772 152.871C281.537 153.663 280.868 156.057 280.66 156.923L278.363 165.67C278.264 166.056 278.212 166.454 278.209 166.853C278.209 166.984 278.235 167.113 278.286 167.233C278.337 167.352 278.412 167.459 278.505 167.547C278.599 167.635 278.71 167.701 278.83 167.742C278.951 167.783 279.078 167.798 279.204 167.785C280.093 167.717 280.938 167.362 281.619 166.769C282.629 165.834 283.43 164.682 283.964 163.395C284.498 162.108 284.753 160.716 284.711 159.317C284.752 157.623 284.369 155.947 283.599 154.45C282.83 152.952 281.699 151.684 280.316 150.766C278.215 149.606 275.854 149.038 273.471 149.117C265.405 149.117 259.744 154.622 259.744 162.428C259.744 169.983 264.835 174.948 272.512 174.948C274.493 174.948 276.463 174.656 278.363 174.082C279.879 173.593 281.321 172.891 282.649 171.995L284.982 175.46C283.504 176.457 281.893 177.225 280.199 177.742C277.563 178.58 274.819 179.004 272.06 179C266.635 179 262.466 177.426 259.445 174.342C257.992 172.8 256.851 170.976 256.089 168.975C255.327 166.975 254.959 164.838 255.005 162.689C254.949 160.424 255.333 158.171 256.134 156.061C256.936 153.951 258.138 152.027 259.672 150.403C263.189 146.779 267.81 145 273.742 145C282.649 145 288.998 150.915 288.998 159.14C289.031 160.89 288.728 162.629 288.108 164.258C287.487 165.887 286.56 167.373 285.38 168.632C283.504 170.636 280.938 171.797 278.237 171.865C277.607 171.913 276.975 171.797 276.4 171.529C275.825 171.26 275.325 170.847 274.945 170.328C274.744 169.952 274.626 169.535 274.601 169.107C273.997 169.908 273.218 170.55 272.327 170.981C271.435 171.412 270.458 171.619 269.474 171.585C265.694 171.585 263.28 168.67 263.28 164.18C263.28 157.529 267.53 152.014 272.612 152.014C274.755 152.014 275.822 152.564 276.853 154.222L277.242 152.843L281.772 152.871ZM273.896 164.571C274.823 162.683 275.345 160.612 275.424 158.498C275.424 156.886 274.52 155.787 273.209 155.787C271.897 155.787 270.414 156.718 269.456 158.581C268.522 160.407 268 162.425 267.928 164.487C267.928 166.574 268.696 167.682 270.143 167.682C271.59 167.682 272.901 166.574 273.896 164.571Z" fill="#0EB019"/>
<path d="M209.408 154.05L161.613 109.089L134.98 139.754L182.775 184.714L209.408 154.05Z" fill="#0EB019"/>
<path d="M182.997 185L135 139.817L161.744 109L211 154.658L182.997 185Z" fill="url(#paint5_linear_30_10)"/>
<path d="M162 109L163.95 157L209 154.7L162 109Z" fill="url(#paint6_linear_30_10)"/>
<path d="M180.302 151.452L116.782 140.247L110.145 181L173.665 192.205L180.302 151.452Z" fill="#0EB019"/>
<path d="M174.102 192L111 180.785L117.59 140L182 150.909L174.102 192Z" fill="url(#paint7_linear_30_10)"/>
<path d="M117 140L143.521 179L181 151.769L117 140Z" fill="url(#paint8_linear_30_10)"/>
<path d="M190.46 264.38L126.94 253.175L120.303 293.928L183.823 305.133L190.46 264.38Z" fill="#0EB019"/>
<path d="M184.11 305L121 293.776L127.591 253L192 263.909L184.11 305Z" fill="url(#paint9_linear_30_10)"/>
<path d="M127 253L153.53 293L191 265.074L127 253Z" fill="url(#paint10_linear_30_10)"/>
<path d="M347.422 295.096L283.889 306.22L290.478 346.981L354.012 335.857L347.422 295.096Z" fill="#0EB019"/>
<path d="M354 336.007L290.577 347L284 306.724L348.551 295L354 336.007Z" fill="url(#paint11_linear_30_10)"/>
<path d="M284 306.392L321.395 334L348 296L284 306.392Z" fill="url(#paint12_linear_30_10)"/>
<path d="M221.386 297.002L180.035 320.387L193.887 346.916L235.238 323.531L221.386 297.002Z" fill="#0EB019"/>
<path d="M236 323.943L194.052 347L180 320.832L222.57 297L236 323.943Z" fill="url(#paint13_linear_30_10)"/>
<path d="M180 320.893L212.411 331L222 298L180 320.893Z" fill="url(#paint14_linear_30_10)"/>
<path d="M315.766 269.33L250.87 254.839L242.286 296.475L307.182 310.966L315.766 269.33Z" fill="#0EB019"/>
<path d="M307.047 311L242 296.543L250.608 255L317 269.198L307.047 311Z" fill="url(#paint15_linear_30_10)"/>
<path d="M251 255L276.46 297L316 270.281L251 255Z" fill="url(#paint16_linear_30_10)"/>
<path d="M221.349 240.853L156.452 226.362L147.868 267.998L212.765 282.49L221.349 240.853Z" fill="#0EB019"/>
<path d="M213.038 282L148 267.801L156.599 227L223 240.945L213.038 282Z" fill="url(#paint17_linear_30_10)"/>
<path d="M156 227L181.468 268L221 241.917L156 227Z" fill="url(#paint18_linear_30_10)"/>
<path d="M161.783 203.163L118.316 193.457L112.568 221.341L156.035 231.047L161.783 203.163Z" fill="#0EB019"/>
<path d="M156.233 231L112 221.447L117.845 194L163 203.389L156.233 231Z" fill="url(#paint19_linear_30_10)"/>
<path d="M119 194L135.847 221L162 203.83L119 194Z" fill="url(#paint20_linear_30_10)"/>
<path d="M151.539 284.099L86.4025 297.374L94.266 339.164L159.402 325.889L151.539 284.099Z" fill="#0EB019"/>
<path d="M160 325.687L94.8592 339L87 297.102L153.279 283L160 325.687Z" fill="url(#paint21_linear_30_10)"/>
<path d="M87 296.843L125.875 325L152 284L87 296.843Z" fill="url(#paint22_linear_30_10)"/>
<path d="M137.842 152.819L96.4915 176.204L110.344 202.734L151.694 179.348L137.842 152.819Z" fill="#0EB019"/>
<path d="M152 179.478L110.794 203L97 176.313L138.817 152L152 179.478Z" fill="url(#paint23_linear_30_10)"/>
<path d="M97 175.893L128.639 186L138 153L97 175.893Z" fill="url(#paint24_linear_30_10)"/>
<path d="M151.455 205.85L197.946 198.248L193.443 168.42L146.952 176.023L151.455 205.85Z" fill="#0EB019"/>
<path d="M147 175.615L193.5 168L198 197.866L150.664 206L147 175.615Z" fill="url(#paint25_linear_30_10)"/>
<path d="M198 198.078L171.385 178L152 205L198 198.078Z" fill="url(#paint26_linear_30_10)"/>
<path d="M319.5 142C334.136 142 346 129.464 346 114C346 98.536 334.136 86 319.5 86C304.864 86 293 98.536 293 114C293 129.464 304.864 142 319.5 142Z" fill="#0EB019"/>
<path d="M319.5 142C334.136 142 346 129.464 346 114C346 98.536 334.136 86 319.5 86C304.864 86 293 98.536 293 114C293 129.464 304.864 142 319.5 142Z" fill="url(#paint27_linear_30_10)"/>
<mask id="mask0_30_10" style="mask-type:luminance" maskUnits="userSpaceOnUse" x="155" y="116" width="63" height="89">
<path d="M155.049 192.183L217.866 204.138V144.213C217.857 136.872 215.046 129.836 210.052 124.651C205.059 119.466 198.291 116.557 191.237 116.565C176.548 116.565 162.402 131.925 162.402 147.221L155.049 192.183Z" fill="white"/>
</mask>
<g mask="url(#mask0_30_10)">
<path d="M255.089 160.555L191.569 149.35L184.932 190.103L248.452 201.308L255.089 160.555Z" fill="#0EB019"/>
<path d="M248.434 201.316L184.924 190.11L191.557 149.358L256.374 160.259L248.434 201.316Z" fill="url(#paint28_linear_30_10)"/>
<path d="M191.557 149.358L217.937 188.639L255.218 161.212L191.557 149.358Z" fill="url(#paint29_linear_30_10)"/>
<path d="M228.159 134.228L181.76 126.044L176.911 155.813L223.311 163.997L228.159 134.228Z" fill="#0EB019"/>
<path d="M223.299 164.006L176.895 155.817L181.75 126.049L229.096 134.016L223.299 164.006Z" fill="url(#paint30_linear_30_10)"/>
<path d="M181.75 126.049L201.017 154.744L228.251 134.71L181.75 126.049Z" fill="url(#paint31_linear_30_10)"/>
</g>
<path d="M201.156 149.618L154.414 155.315L157.789 185.304L204.531 179.606L201.156 149.618Z" fill="#0EB019"/>
<path d="M205 179.328L157.43 185L154 155.16L202.439 149L205 179.328Z" fill="url(#paint32_linear_30_10)"/>
<path d="M154 155.432L180.258 178L201 150L154 155.432Z" fill="url(#paint33_linear_30_10)"/>
<defs>
<linearGradient id="paint0_linear_30_10" x1="257.628" y1="325.724" x2="255.649" y2="160.458" gradientUnits="userSpaceOnUse">
<stop stop-color="#010101" stop-opacity="0"/>
<stop offset="0.95" stop-color="#010101"/>
</linearGradient>
<linearGradient id="paint1_linear_30_10" x1="164" y1="160.009" x2="217.009" y2="160.009" gradientUnits="userSpaceOnUse">
<stop stop-color="#010101" stop-opacity="0"/>
<stop offset="0.95" stop-color="#010101"/>
</linearGradient>
<linearGradient id="paint2_linear_30_10" x1="265.2" y1="109.625" x2="254.754" y2="279.694" gradientUnits="userSpaceOnUse">
<stop stop-color="#010101" stop-opacity="0"/>
<stop offset="0.95" stop-color="#010101"/>
</linearGradient>
<linearGradient id="paint3_linear_30_10" x1="297.402" y1="137.496" x2="339.316" y2="100.859" gradientUnits="userSpaceOnUse">
<stop stop-color="#010101" stop-opacity="0"/>
<stop offset="0.95" stop-color="#010101"/>
</linearGradient>
<linearGradient id="paint4_linear_30_10" x1="164.902" y1="190.423" x2="165.98" y2="209.82" gradientUnits="userSpaceOnUse">
<stop stop-color="#010101" stop-opacity="0"/>
<stop offset="0.95" stop-color="#010101"/>
</linearGradient>
<linearGradient id="paint5_linear_30_10" x1="194.221" y1="125.924" x2="148.557" y2="166.537" gradientUnits="userSpaceOnUse">
<stop stop-color="white" stop-opacity="0"/>
<stop offset="0.95" stop-color="white"/>
</linearGradient>
<linearGradient id="paint6_linear_30_10" x1="190.291" y1="125.631" x2="168.602" y2="150.861" gradientUnits="userSpaceOnUse">
<stop stop-color="white" stop-opacity="0"/>
<stop offset="0.95" stop-color="white"/>
</linearGradient>
<linearGradient id="paint7_linear_30_10" x1="153.33" y1="136.127" x2="136.875" y2="195.937" gradientUnits="userSpaceOnUse">
<stop stop-color="white" stop-opacity="0"/>
<stop offset="0.95" stop-color="white"/>
</linearGradient>
<linearGradient id="paint8_linear_30_10" x1="149.896" y1="138.002" x2="145.883" y2="171.453" gradientUnits="userSpaceOnUse">
<stop stop-color="white" stop-opacity="0"/>
<stop offset="0.95" stop-color="white"/>
</linearGradient>
<linearGradient id="paint9_linear_30_10" x1="163.336" y1="249.12" x2="146.883" y2="308.931" gradientUnits="userSpaceOnUse">
<stop stop-color="white" stop-opacity="0"/>
<stop offset="0.95" stop-color="white"/>
</linearGradient>
<linearGradient id="paint10_linear_30_10" x1="159.897" y1="250.943" x2="155.681" y2="285.242" gradientUnits="userSpaceOnUse">
<stop stop-color="white" stop-opacity="0"/>
<stop offset="0.95" stop-color="white"/>
</linearGradient>
<linearGradient id="paint11_linear_30_10" x1="316.703" y1="290.849" x2="321.642" y2="352.092" gradientUnits="userSpaceOnUse">
<stop stop-color="white" stop-opacity="0"/>
<stop offset="0.95" stop-color="white"/>
</linearGradient>
<linearGradient id="paint12_linear_30_10" x1="314.35" y1="293.419" x2="321.727" y2="325.941" gradientUnits="userSpaceOnUse">
<stop stop-color="white" stop-opacity="0"/>
<stop offset="0.95" stop-color="white"/>
</linearGradient>
<linearGradient id="paint13_linear_30_10" x1="199.261" y1="302.001" x2="217.211" y2="342.938" gradientUnits="userSpaceOnUse">
<stop stop-color="white" stop-opacity="0"/>
<stop offset="0.95" stop-color="white"/>
</linearGradient>
<linearGradient id="paint14_linear_30_10" x1="198.049" y1="304.52" x2="211.048" y2="325.204" gradientUnits="userSpaceOnUse">
<stop stop-color="white" stop-opacity="0"/>
<stop offset="0.95" stop-color="white"/>
</linearGradient>
<linearGradient id="paint15_linear_30_10" x1="287.896" y1="252.636" x2="268.457" y2="313.303" gradientUnits="userSpaceOnUse">
<stop stop-color="white" stop-opacity="0"/>
<stop offset="0.95" stop-color="white"/>
</linearGradient>
<linearGradient id="paint16_linear_30_10" x1="284.773" y1="254.386" x2="278.912" y2="289.109" gradientUnits="userSpaceOnUse">
<stop stop-color="white" stop-opacity="0"/>
<stop offset="0.95" stop-color="white"/>
</linearGradient>
<linearGradient id="paint17_linear_30_10" x1="193.891" y1="224.682" x2="175.078" y2="284.462" gradientUnits="userSpaceOnUse">
<stop stop-color="white" stop-opacity="0"/>
<stop offset="0.95" stop-color="white"/>
</linearGradient>
<linearGradient id="paint18_linear_30_10" x1="189.777" y1="226.405" x2="184.189" y2="260.353" gradientUnits="userSpaceOnUse">
<stop stop-color="white" stop-opacity="0"/>
<stop offset="0.95" stop-color="white"/>
</linearGradient>
<linearGradient id="paint19_linear_30_10" x1="143.207" y1="192.435" x2="130.664" y2="232.731" gradientUnits="userSpaceOnUse">
<stop stop-color="white" stop-opacity="0"/>
<stop offset="0.95" stop-color="white"/>
</linearGradient>
<linearGradient id="paint20_linear_30_10" x1="141.345" y1="193.599" x2="137.684" y2="215.957" gradientUnits="userSpaceOnUse">
<stop stop-color="white" stop-opacity="0"/>
<stop offset="0.95" stop-color="white"/>
</linearGradient>
<linearGradient id="paint21_linear_30_10" x1="120.3" y1="279.706" x2="127.295" y2="343.532" gradientUnits="userSpaceOnUse">
<stop stop-color="white" stop-opacity="0"/>
<stop offset="0.95" stop-color="white"/>
</linearGradient>
<linearGradient id="paint22_linear_30_10" x1="117.589" y1="282.365" x2="126.618" y2="316.414" gradientUnits="userSpaceOnUse">
<stop stop-color="white" stop-opacity="0"/>
<stop offset="0.95" stop-color="white"/>
</linearGradient>
<linearGradient id="paint23_linear_30_10" x1="115.918" y1="157.097" x2="134.698" y2="198.337" gradientUnits="userSpaceOnUse">
<stop stop-color="white" stop-opacity="0"/>
<stop offset="0.95" stop-color="white"/>
</linearGradient>
<linearGradient id="paint24_linear_30_10" x1="114.617" y1="159.515" x2="127.746" y2="179.923" gradientUnits="userSpaceOnUse">
<stop stop-color="white" stop-opacity="0"/>
<stop offset="0.95" stop-color="white"/>
</linearGradient>
<linearGradient id="paint25_linear_30_10" x1="174.019" y1="209.256" x2="170.845" y2="163.908" gradientUnits="userSpaceOnUse">
<stop stop-color="white" stop-opacity="0"/>
<stop offset="0.95" stop-color="white"/>
</linearGradient>
<linearGradient id="paint26_linear_30_10" x1="176.208" y1="207.049" x2="171.191" y2="183.692" gradientUnits="userSpaceOnUse">
<stop stop-color="white" stop-opacity="0"/>
<stop offset="0.95" stop-color="white"/>
</linearGradient>
<linearGradient id="paint27_linear_30_10" x1="318.842" y1="114.724" x2="344.981" y2="89.1033" gradientUnits="userSpaceOnUse">
<stop stop-color="white" stop-opacity="0"/>
<stop offset="0.95" stop-color="white"/>
</linearGradient>
<linearGradient id="paint28_linear_30_10" x1="227.527" y1="145.489" x2="211.188" y2="205.311" gradientUnits="userSpaceOnUse">
<stop stop-color="white" stop-opacity="0"/>
<stop offset="0.95" stop-color="white"/>
</linearGradient>
<linearGradient id="paint29_linear_30_10" x1="224.279" y1="147.346" x2="220.187" y2="181.025" gradientUnits="userSpaceOnUse">
<stop stop-color="white" stop-opacity="0"/>
<stop offset="0.95" stop-color="white"/>
</linearGradient>
<linearGradient id="paint30_linear_30_10" x1="208.021" y1="123.224" x2="196.091" y2="166.926" gradientUnits="userSpaceOnUse">
<stop stop-color="white" stop-opacity="0"/>
<stop offset="0.95" stop-color="white"/>
</linearGradient>
<linearGradient id="paint31_linear_30_10" x1="205.646" y1="124.579" x2="202.66" y2="149.188" gradientUnits="userSpaceOnUse">
<stop stop-color="white" stop-opacity="0"/>
<stop offset="0.95" stop-color="white"/>
</linearGradient>
<linearGradient id="paint32_linear_30_10" x1="177.753" y1="147.229" x2="178.921" y2="192.373" gradientUnits="userSpaceOnUse">
<stop stop-color="white" stop-opacity="0"/>
<stop offset="0.95" stop-color="white"/>
</linearGradient>
<linearGradient id="paint33_linear_30_10" x1="175.445" y1="149.277" x2="179.936" y2="174.341" gradientUnits="userSpaceOnUse">
<stop stop-color="white" stop-opacity="0"/>
<stop offset="0.95" stop-color="white"/>
</linearGradient>
</defs>
</svg>
