<svg width="309" height="29" viewBox="0 0 309 29" fill="none" xmlns="http://www.w3.org/2000/svg">
<path d="M8.66438 23V6.2H16.3444C17.8804 6.2 19.2004 6.448 20.3044 6.944C21.4244 7.44 22.2884 8.16 22.8964 9.104C23.5044 10.032 23.8084 11.136 23.8084 12.416C23.8084 13.68 23.5044 14.776 22.8964 15.704C22.2884 16.632 21.4244 17.352 20.3044 17.864C19.2004 18.36 17.8804 18.608 16.3444 18.608H11.3044L13.4164 16.544V23H8.66438ZM13.4164 17.048L11.3044 14.864H16.0564C17.0484 14.864 17.7844 14.648 18.2644 14.216C18.7604 13.784 19.0084 13.184 19.0084 12.416C19.0084 11.632 18.7604 11.024 18.2644 10.592C17.7844 10.16 17.0484 9.944 16.0564 9.944H11.3044L13.4164 7.76V17.048ZM32.7019 23.216C31.1659 23.216 29.8219 22.928 28.6699 22.352C27.5339 21.76 26.6459 20.96 26.0059 19.952C25.3819 18.928 25.0699 17.768 25.0699 16.472C25.0699 15.176 25.3739 14.024 25.9819 13.016C26.6059 11.992 27.4619 11.2 28.5499 10.64C29.6379 10.064 30.8619 9.776 32.2219 9.776C33.5019 9.776 34.6699 10.04 35.7259 10.568C36.7819 11.08 37.6219 11.84 38.2459 12.848C38.8699 13.856 39.1819 15.08 39.1819 16.52C39.1819 16.68 39.1739 16.864 39.1579 17.072C39.1419 17.28 39.1259 17.472 39.1099 17.648H28.8139V15.248H36.6859L34.9579 15.92C34.9739 15.328 34.8619 14.816 34.6219 14.384C34.3979 13.952 34.0779 13.616 33.6619 13.376C33.2619 13.136 32.7899 13.016 32.2459 13.016C31.7019 13.016 31.2219 13.136 30.8059 13.376C30.4059 13.616 30.0939 13.96 29.8699 14.408C29.6459 14.84 29.5339 15.352 29.5339 15.944V16.64C29.5339 17.28 29.6619 17.832 29.9179 18.296C30.1899 18.76 30.5739 19.12 31.0699 19.376C31.5659 19.616 32.1579 19.736 32.8459 19.736C33.4859 19.736 34.0299 19.648 34.4779 19.472C34.9419 19.28 35.3979 18.992 35.8459 18.608L38.2459 21.104C37.6219 21.792 36.8539 22.32 35.9419 22.688C35.0299 23.04 33.9499 23.216 32.7019 23.216ZM49.7563 9.776C50.7643 9.776 51.6763 9.984 52.4923 10.4C53.3083 10.8 53.9483 11.424 54.4123 12.272C54.8923 13.12 55.1323 14.216 55.1323 15.56V23H50.5723V16.304C50.5723 15.376 50.3803 14.704 49.9963 14.288C49.6283 13.856 49.1083 13.64 48.4363 13.64C47.9563 13.64 47.5163 13.752 47.1163 13.976C46.7163 14.184 46.4043 14.512 46.1803 14.96C45.9563 15.408 45.8443 15.992 45.8443 16.712V23H41.2843V9.992H45.6283V13.688L44.7883 12.608C45.2843 11.664 45.9643 10.96 46.8283 10.496C47.6923 10.016 48.6683 9.776 49.7563 9.776ZM64.5193 27.872C63.2713 27.872 62.0793 27.728 60.9433 27.44C59.8233 27.152 58.8633 26.728 58.0633 26.168L59.7193 22.976C60.2633 23.408 60.9353 23.744 61.7353 23.984C62.5513 24.24 63.3433 24.368 64.1113 24.368C65.3433 24.368 66.2313 24.096 66.7753 23.552C67.3193 23.024 67.5913 22.248 67.5913 21.224V19.688L67.8313 16.04L67.8073 12.368V9.992H72.1513V20.624C72.1513 23.088 71.4873 24.912 70.1593 26.096C68.8313 27.28 66.9513 27.872 64.5193 27.872ZM63.7273 22.328C62.5753 22.328 61.5113 22.072 60.5353 21.56C59.5753 21.032 58.7993 20.304 58.2073 19.376C57.6313 18.432 57.3433 17.32 57.3433 16.04C57.3433 14.76 57.6313 13.656 58.2073 12.728C58.7993 11.784 59.5753 11.056 60.5353 10.544C61.5113 10.032 62.5753 9.776 63.7273 9.776C64.8313 9.776 65.7753 10 66.5593 10.448C67.3433 10.88 67.9353 11.56 68.3353 12.488C68.7513 13.416 68.9593 14.6 68.9593 16.04C68.9593 17.48 68.7513 18.664 68.3353 19.592C67.9353 20.52 67.3433 21.208 66.5593 21.656C65.7753 22.104 64.8313 22.328 63.7273 22.328ZM64.8073 18.704C65.3513 18.704 65.8313 18.592 66.2473 18.368C66.6793 18.144 67.0153 17.832 67.2553 17.432C67.5113 17.032 67.6393 16.568 67.6393 16.04C67.6393 15.512 67.5113 15.048 67.2553 14.648C67.0153 14.248 66.6793 13.944 66.2473 13.736C65.8313 13.512 65.3513 13.4 64.8073 13.4C64.2633 13.4 63.7753 13.512 63.3433 13.736C62.9113 13.944 62.5673 14.248 62.3113 14.648C62.0713 15.048 61.9513 15.512 61.9513 16.04C61.9513 16.568 62.0713 17.032 62.3113 17.432C62.5673 17.832 62.9113 18.144 63.3433 18.368C63.7753 18.592 64.2633 18.704 64.8073 18.704ZM83.0252 23V20.576L82.7132 19.976V15.512C82.7132 14.792 82.4892 14.24 82.0412 13.856C81.6092 13.456 80.9132 13.256 79.9532 13.256C79.3292 13.256 78.6972 13.36 78.0572 13.568C77.4172 13.76 76.8732 14.032 76.4252 14.384L74.8892 11.288C75.6252 10.808 76.5052 10.44 77.5292 10.184C78.5692 9.912 79.6012 9.776 80.6252 9.776C82.7372 9.776 84.3692 10.264 85.5212 11.24C86.6892 12.2 87.2732 13.712 87.2732 15.776V23H83.0252ZM79.1852 23.216C78.1452 23.216 77.2652 23.04 76.5452 22.688C75.8252 22.336 75.2732 21.856 74.8892 21.248C74.5212 20.64 74.3372 19.96 74.3372 19.208C74.3372 18.408 74.5372 17.72 74.9372 17.144C75.3532 16.552 75.9852 16.104 76.8332 15.8C77.6812 15.48 78.7772 15.32 80.1212 15.32H83.1932V17.696H80.7452C80.0092 17.696 79.4892 17.816 79.1852 18.056C78.8972 18.296 78.7532 18.616 78.7532 19.016C78.7532 19.416 78.9052 19.736 79.2092 19.976C79.5132 20.216 79.9292 20.336 80.4572 20.336C80.9532 20.336 81.4012 20.216 81.8012 19.976C82.2172 19.72 82.5212 19.336 82.7132 18.824L83.3372 20.504C83.0972 21.4 82.6252 22.08 81.9212 22.544C81.2332 22.992 80.3212 23.216 79.1852 23.216ZM95.9796 23.216C94.7956 23.216 93.7156 22.944 92.7396 22.4C91.7796 21.84 91.0116 21.064 90.4356 20.072C89.8596 19.064 89.5716 17.864 89.5716 16.472C89.5716 15.096 89.8596 13.912 90.4356 12.92C91.0116 11.912 91.7796 11.136 92.7396 10.592C93.7156 10.048 94.7956 9.776 95.9796 9.776C97.0996 9.776 98.0436 10.016 98.8116 10.496C99.5956 10.976 100.188 11.712 100.588 12.704C100.988 13.696 101.188 14.952 101.188 16.472C101.188 18.024 100.996 19.296 100.612 20.288C100.228 21.28 99.6516 22.016 98.8836 22.496C98.1156 22.976 97.1476 23.216 95.9796 23.216ZM96.9396 19.592C97.4516 19.592 97.9076 19.472 98.3076 19.232C98.7236 18.992 99.0516 18.64 99.2916 18.176C99.5316 17.696 99.6516 17.128 99.6516 16.472C99.6516 15.816 99.5316 15.264 99.2916 14.816C99.0516 14.352 98.7236 14 98.3076 13.76C97.9076 13.52 97.4516 13.4 96.9396 13.4C96.4116 13.4 95.9396 13.52 95.5236 13.76C95.1236 14 94.8036 14.352 94.5636 14.816C94.3236 15.264 94.2036 15.816 94.2036 16.472C94.2036 17.128 94.3236 17.696 94.5636 18.176C94.8036 18.64 95.1236 18.992 95.5236 19.232C95.9396 19.472 96.4116 19.592 96.9396 19.592ZM99.7956 23V20.768L99.8196 16.472L99.5796 12.176V5.192H104.14V23H99.7956ZM112.545 23.216C111.489 23.216 110.537 23.008 109.689 22.592C108.857 22.176 108.201 21.528 107.721 20.648C107.257 19.752 107.025 18.624 107.025 17.264V9.992H111.585V16.52C111.585 17.528 111.769 18.248 112.137 18.68C112.521 19.112 113.057 19.328 113.745 19.328C114.193 19.328 114.601 19.224 114.969 19.016C115.337 18.808 115.633 18.48 115.857 18.032C116.081 17.568 116.193 16.976 116.193 16.256V9.992H120.753V23H116.409V19.328L117.249 20.36C116.801 21.32 116.153 22.04 115.305 22.52C114.457 22.984 113.537 23.216 112.545 23.216ZM131.635 23V20.576L131.323 19.976V15.512C131.323 14.792 131.099 14.24 130.651 13.856C130.219 13.456 129.523 13.256 128.563 13.256C127.939 13.256 127.307 13.36 126.667 13.568C126.027 13.76 125.483 14.032 125.035 14.384L123.499 11.288C124.235 10.808 125.115 10.44 126.139 10.184C127.179 9.912 128.211 9.776 129.235 9.776C131.347 9.776 132.979 10.264 134.131 11.24C135.299 12.2 135.883 13.712 135.883 15.776V23H131.635ZM127.795 23.216C126.755 23.216 125.875 23.04 125.155 22.688C124.435 22.336 123.883 21.856 123.499 21.248C123.131 20.64 122.947 19.96 122.947 19.208C122.947 18.408 123.147 17.72 123.547 17.144C123.963 16.552 124.595 16.104 125.443 15.8C126.291 15.48 127.387 15.32 128.731 15.32H131.803V17.696H129.355C128.619 17.696 128.099 17.816 127.795 18.056C127.507 18.296 127.363 18.616 127.363 19.016C127.363 19.416 127.515 19.736 127.819 19.976C128.123 20.216 128.539 20.336 129.067 20.336C129.563 20.336 130.011 20.216 130.411 19.976C130.827 19.72 131.131 19.336 131.323 18.824L131.947 20.504C131.707 21.4 131.235 22.08 130.531 22.544C129.843 22.992 128.931 23.216 127.795 23.216ZM147.233 9.776C148.241 9.776 149.153 9.984 149.969 10.4C150.785 10.8 151.425 11.424 151.889 12.272C152.369 13.12 152.609 14.216 152.609 15.56V23H148.049V16.304C148.049 15.376 147.857 14.704 147.473 14.288C147.105 13.856 146.585 13.64 145.913 13.64C145.433 13.64 144.993 13.752 144.593 13.976C144.193 14.184 143.881 14.512 143.657 14.96C143.433 15.408 143.321 15.992 143.321 16.712V23H138.761V9.992H143.105V13.688L142.265 12.608C142.761 11.664 143.441 10.96 144.305 10.496C145.169 10.016 146.145 9.776 147.233 9.776ZM162.672 23V6.2H166.584L173.544 17.624H171.48L178.248 6.2H182.16L182.208 23H177.84L177.792 12.848H178.536L173.472 21.344H171.36L166.152 12.848H167.064V23H162.672ZM193.299 23V20.576L192.987 19.976V15.512C192.987 14.792 192.763 14.24 192.315 13.856C191.883 13.456 191.187 13.256 190.227 13.256C189.603 13.256 188.971 13.36 188.331 13.568C187.691 13.76 187.147 14.032 186.699 14.384L185.163 11.288C185.899 10.808 186.779 10.44 187.803 10.184C188.843 9.912 189.875 9.776 190.899 9.776C193.011 9.776 194.643 10.264 195.795 11.24C196.963 12.2 197.547 13.712 197.547 15.776V23H193.299ZM189.459 23.216C188.419 23.216 187.539 23.04 186.819 22.688C186.099 22.336 185.547 21.856 185.163 21.248C184.795 20.64 184.611 19.96 184.611 19.208C184.611 18.408 184.811 17.72 185.211 17.144C185.627 16.552 186.259 16.104 187.107 15.8C187.955 15.48 189.051 15.32 190.395 15.32H193.467V17.696H191.019C190.283 17.696 189.763 17.816 189.459 18.056C189.171 18.296 189.027 18.616 189.027 19.016C189.027 19.416 189.179 19.736 189.483 19.976C189.787 20.216 190.203 20.336 190.731 20.336C191.227 20.336 191.675 20.216 192.075 19.976C192.491 19.72 192.795 19.336 192.987 18.824L193.611 20.504C193.371 21.4 192.899 22.08 192.195 22.544C191.507 22.992 190.595 23.216 189.459 23.216ZM205.153 23.216C204.049 23.216 202.969 23.088 201.913 22.832C200.873 22.576 200.033 22.256 199.393 21.872L200.761 18.752C201.369 19.12 202.081 19.416 202.897 19.64C203.713 19.848 204.513 19.952 205.297 19.952C206.065 19.952 206.593 19.872 206.881 19.712C207.185 19.552 207.337 19.336 207.337 19.064C207.337 18.808 207.193 18.624 206.905 18.512C206.633 18.384 206.265 18.288 205.801 18.224C205.353 18.16 204.857 18.088 204.313 18.008C203.769 17.928 203.217 17.824 202.657 17.696C202.113 17.552 201.609 17.344 201.145 17.072C200.697 16.784 200.337 16.4 200.065 15.92C199.793 15.44 199.657 14.832 199.657 14.096C199.657 13.264 199.897 12.528 200.377 11.888C200.873 11.232 201.593 10.72 202.537 10.352C203.481 9.968 204.633 9.776 205.993 9.776C206.905 9.776 207.825 9.872 208.753 10.064C209.697 10.24 210.489 10.512 211.129 10.88L209.761 13.976C209.121 13.608 208.481 13.36 207.841 13.232C207.201 13.088 206.593 13.016 206.017 13.016C205.249 13.016 204.705 13.104 204.385 13.28C204.081 13.456 203.929 13.672 203.929 13.928C203.929 14.184 204.065 14.384 204.337 14.528C204.609 14.656 204.969 14.76 205.417 14.84C205.881 14.904 206.385 14.976 206.929 15.056C207.473 15.12 208.017 15.224 208.561 15.368C209.121 15.512 209.625 15.728 210.073 16.016C210.537 16.288 210.905 16.664 211.177 17.144C211.449 17.608 211.585 18.208 211.585 18.944C211.585 19.744 211.337 20.464 210.841 21.104C210.361 21.744 209.641 22.256 208.681 22.64C207.737 23.024 206.561 23.216 205.153 23.216ZM215.548 27.872C214.86 27.872 214.164 27.76 213.46 27.536C212.772 27.328 212.212 27.048 211.78 26.696L213.364 23.504C213.636 23.744 213.948 23.928 214.3 24.056C214.668 24.2 215.028 24.272 215.38 24.272C215.876 24.272 216.268 24.16 216.556 23.936C216.844 23.712 217.092 23.36 217.3 22.88L217.9 21.368L218.26 20.912L222.676 9.992H227.02L221.404 23.528C220.956 24.648 220.436 25.52 219.844 26.144C219.268 26.784 218.62 27.232 217.9 27.488C217.196 27.744 216.412 27.872 215.548 27.872ZM217.324 23.552L211.588 9.992H216.268L220.492 20.504L217.324 23.552ZM235.697 23V20.576L235.385 19.976V15.512C235.385 14.792 235.161 14.24 234.713 13.856C234.281 13.456 233.585 13.256 232.625 13.256C232.001 13.256 231.369 13.36 230.729 13.568C230.089 13.76 229.545 14.032 229.097 14.384L227.561 11.288C228.297 10.808 229.177 10.44 230.201 10.184C231.241 9.912 232.273 9.776 233.297 9.776C235.409 9.776 237.041 10.264 238.193 11.24C239.361 12.2 239.945 13.712 239.945 15.776V23H235.697ZM231.857 23.216C230.817 23.216 229.937 23.04 229.217 22.688C228.497 22.336 227.945 21.856 227.561 21.248C227.193 20.64 227.009 19.96 227.009 19.208C227.009 18.408 227.209 17.72 227.609 17.144C228.025 16.552 228.657 16.104 229.505 15.8C230.353 15.48 231.449 15.32 232.793 15.32H235.865V17.696H233.417C232.681 17.696 232.161 17.816 231.857 18.056C231.569 18.296 231.425 18.616 231.425 19.016C231.425 19.416 231.577 19.736 231.881 19.976C232.185 20.216 232.601 20.336 233.129 20.336C233.625 20.336 234.073 20.216 234.473 19.976C234.889 19.72 235.193 19.336 235.385 18.824L236.009 20.504C235.769 21.4 235.297 22.08 234.593 22.544C233.905 22.992 232.993 23.216 231.857 23.216ZM242.823 23V9.992H247.167V13.784L246.519 12.704C246.903 11.728 247.527 11 248.391 10.52C249.255 10.024 250.303 9.776 251.535 9.776V13.88C251.327 13.848 251.143 13.832 250.983 13.832C250.839 13.816 250.679 13.808 250.503 13.808C249.575 13.808 248.823 14.064 248.247 14.576C247.671 15.072 247.383 15.888 247.383 17.024V23H242.823ZM260.588 23V20.576L260.276 19.976V15.512C260.276 14.792 260.052 14.24 259.604 13.856C259.172 13.456 258.476 13.256 257.516 13.256C256.892 13.256 256.26 13.36 255.62 13.568C254.98 13.76 254.436 14.032 253.988 14.384L252.452 11.288C253.188 10.808 254.068 10.44 255.092 10.184C256.132 9.912 257.164 9.776 258.188 9.776C260.3 9.776 261.932 10.264 263.084 11.24C264.252 12.2 264.836 13.712 264.836 15.776V23H260.588ZM256.748 23.216C255.708 23.216 254.828 23.04 254.108 22.688C253.388 22.336 252.836 21.856 252.452 21.248C252.084 20.64 251.9 19.96 251.9 19.208C251.9 18.408 252.1 17.72 252.5 17.144C252.916 16.552 253.548 16.104 254.396 15.8C255.244 15.48 256.34 15.32 257.684 15.32H260.756V17.696H258.308C257.572 17.696 257.052 17.816 256.748 18.056C256.46 18.296 256.316 18.616 256.316 19.016C256.316 19.416 256.468 19.736 256.772 19.976C257.076 20.216 257.492 20.336 258.02 20.336C258.516 20.336 258.964 20.216 259.364 19.976C259.78 19.72 260.084 19.336 260.276 18.824L260.9 20.504C260.66 21.4 260.188 22.08 259.484 22.544C258.796 22.992 257.884 23.216 256.748 23.216ZM271.506 20.6L271.626 15.152L276.93 9.992H282.33L276.45 16.064L274.122 17.936L271.506 20.6ZM267.714 23V5.192H272.274V23H267.714ZM277.266 23L273.282 18.008L276.114 14.504L282.786 23H277.266ZM291.877 23V20.576L291.565 19.976V15.512C291.565 14.792 291.341 14.24 290.893 13.856C290.461 13.456 289.765 13.256 288.805 13.256C288.181 13.256 287.549 13.36 286.909 13.568C286.269 13.76 285.725 14.032 285.277 14.384L283.741 11.288C284.477 10.808 285.357 10.44 286.381 10.184C287.421 9.912 288.453 9.776 289.477 9.776C291.589 9.776 293.221 10.264 294.373 11.24C295.541 12.2 296.125 13.712 296.125 15.776V23H291.877ZM288.037 23.216C286.997 23.216 286.117 23.04 285.397 22.688C284.677 22.336 284.125 21.856 283.741 21.248C283.373 20.64 283.189 19.96 283.189 19.208C283.189 18.408 283.389 17.72 283.789 17.144C284.205 16.552 284.837 16.104 285.685 15.8C286.533 15.48 287.629 15.32 288.973 15.32H292.045V17.696H289.597C288.861 17.696 288.341 17.816 288.037 18.056C287.749 18.296 287.605 18.616 287.605 19.016C287.605 19.416 287.757 19.736 288.061 19.976C288.365 20.216 288.781 20.336 289.309 20.336C289.805 20.336 290.253 20.216 290.653 19.976C291.069 19.72 291.373 19.336 291.565 18.824L292.189 20.504C291.949 21.4 291.477 22.08 290.773 22.544C290.085 22.992 289.173 23.216 288.037 23.216ZM304.811 23.216C303.147 23.216 301.851 22.808 300.923 21.992C299.995 21.16 299.531 19.912 299.531 18.248V7.088H304.091V18.2C304.091 18.664 304.219 19.032 304.475 19.304C304.731 19.56 305.059 19.688 305.459 19.688C306.003 19.688 306.467 19.552 306.851 19.28L307.979 22.472C307.595 22.728 307.123 22.912 306.563 23.024C306.003 23.152 305.419 23.216 304.811 23.216ZM297.635 13.88V10.472H307.067V13.88H297.635Z" fill="black"/>
</svg>
