<svg width="436" height="79" viewBox="0 0 436 79" fill="none" xmlns="http://www.w3.org/2000/svg">
<path d="M15.6168 57V23.4H30.8808C34.5288 23.4 37.7448 24.104 40.5288 25.512C43.3128 26.888 45.4888 28.824 47.0568 31.32C48.6248 33.816 49.4088 36.776 49.4088 40.2C49.4088 43.592 48.6248 46.552 47.0568 49.08C45.4888 51.576 43.3128 53.528 40.5288 54.936C37.7448 56.312 34.5288 57 30.8808 57H15.6168ZM23.3928 50.616H30.4968C32.7368 50.616 34.6728 50.2 36.3048 49.368C37.9688 48.504 39.2488 47.288 40.1448 45.72C41.0728 44.152 41.5368 42.312 41.5368 40.2C41.5368 38.056 41.0728 36.216 40.1448 34.68C39.2488 33.112 37.9688 31.912 36.3048 31.08C34.6728 30.216 32.7368 29.784 30.4968 29.784H23.3928V50.616ZM70.5851 57V51.96L70.1051 50.856V41.832C70.1051 40.232 69.6091 38.984 68.6171 38.088C67.6571 37.192 66.1691 36.744 64.1531 36.744C62.7771 36.744 61.4171 36.968 60.0731 37.416C58.7611 37.832 57.6411 38.408 56.7131 39.144L54.0251 33.912C55.4331 32.92 57.1291 32.152 59.1131 31.608C61.0971 31.064 63.1131 30.792 65.1611 30.792C69.0971 30.792 72.1531 31.72 74.3291 33.576C76.5051 35.432 77.5931 38.328 77.5931 42.264V57H70.5851ZM62.7131 57.384C60.6971 57.384 58.9691 57.048 57.5291 56.376C56.0891 55.672 54.9851 54.728 54.2171 53.544C53.4491 52.36 53.0651 51.032 53.0651 49.56C53.0651 48.024 53.4331 46.68 54.1691 45.528C54.9371 44.376 56.1371 43.48 57.7691 42.84C59.4011 42.168 61.5291 41.832 64.1531 41.832H71.0171V46.2H64.9691C63.2091 46.2 61.9931 46.488 61.3211 47.064C60.6811 47.64 60.3611 48.36 60.3611 49.224C60.3611 50.184 60.7291 50.952 61.4651 51.528C62.2331 52.072 63.2731 52.344 64.5851 52.344C65.8331 52.344 66.9531 52.056 67.9451 51.48C68.9371 50.872 69.6571 49.992 70.1051 48.84L71.2571 52.296C70.7131 53.96 69.7211 55.224 68.2811 56.088C66.8411 56.952 64.9851 57.384 62.7131 57.384ZM85.2821 57V30.6C85.2821 27.688 86.1461 25.368 87.8741 23.64C89.6021 21.88 92.0661 21 95.2661 21C96.3541 21 97.3941 21.112 98.3861 21.336C99.4101 21.56 100.274 21.912 100.978 22.392L99.0101 27.816C98.5941 27.528 98.1301 27.304 97.6181 27.144C97.1061 26.984 96.5621 26.904 95.9861 26.904C94.8981 26.904 94.0501 27.224 93.4421 27.864C92.8661 28.472 92.5781 29.4 92.5781 30.648V33.048L92.7701 36.264V57H85.2821ZM81.2981 37.512V31.752H99.2021V37.512H81.2981ZM113.493 57.384C110.453 57.384 108.085 56.616 106.389 55.08C104.693 53.512 103.845 51.192 103.845 48.12V25.464H111.333V48.024C111.333 49.112 111.621 49.96 112.197 50.568C112.773 51.144 113.557 51.432 114.549 51.432C115.733 51.432 116.741 51.112 117.573 50.472L119.589 55.752C118.821 56.296 117.893 56.712 116.805 57C115.749 57.256 114.645 57.384 113.493 57.384ZM99.8606 37.512V31.752H117.765V37.512H99.8606ZM139.632 57V51.96L139.152 50.856V41.832C139.152 40.232 138.656 38.984 137.664 38.088C136.704 37.192 135.216 36.744 133.2 36.744C131.824 36.744 130.464 36.968 129.12 37.416C127.808 37.832 126.688 38.408 125.76 39.144L123.072 33.912C124.48 32.92 126.176 32.152 128.16 31.608C130.144 31.064 132.16 30.792 134.208 30.792C138.144 30.792 141.2 31.72 143.376 33.576C145.552 35.432 146.64 38.328 146.64 42.264V57H139.632ZM131.76 57.384C129.744 57.384 128.016 57.048 126.576 56.376C125.136 55.672 124.032 54.728 123.264 53.544C122.496 52.36 122.112 51.032 122.112 49.56C122.112 48.024 122.48 46.68 123.216 45.528C123.984 44.376 125.184 43.48 126.816 42.84C128.448 42.168 130.576 41.832 133.2 41.832H140.064V46.2H134.016C132.256 46.2 131.04 46.488 130.368 47.064C129.728 47.64 129.408 48.36 129.408 49.224C129.408 50.184 129.776 50.952 130.512 51.528C131.28 52.072 132.32 52.344 133.632 52.344C134.88 52.344 136 52.056 136.992 51.48C137.984 50.872 138.704 49.992 139.152 48.84L140.304 52.296C139.76 53.96 138.768 55.224 137.328 56.088C135.888 56.952 134.032 57.384 131.76 57.384ZM153.417 57V31.176H160.569V38.472L159.561 36.36C160.329 34.536 161.561 33.16 163.257 32.232C164.953 31.272 167.017 30.792 169.449 30.792V37.704C169.129 37.672 168.841 37.656 168.585 37.656C168.329 37.624 168.057 37.608 167.769 37.608C165.721 37.608 164.057 38.2 162.777 39.384C161.529 40.536 160.905 42.344 160.905 44.808V57H153.417ZM199.251 57.576C196.563 57.576 193.987 57.224 191.523 56.52C189.059 55.784 187.075 54.84 185.571 53.688L188.211 47.832C189.651 48.856 191.347 49.704 193.299 50.376C195.283 51.016 197.283 51.336 199.299 51.336C200.835 51.336 202.067 51.192 202.995 50.904C203.955 50.584 204.659 50.152 205.107 49.608C205.555 49.064 205.779 48.44 205.779 47.736C205.779 46.84 205.427 46.136 204.723 45.624C204.019 45.08 203.091 44.648 201.939 44.328C200.787 43.976 199.507 43.656 198.099 43.368C196.723 43.048 195.331 42.664 193.923 42.216C192.547 41.768 191.283 41.192 190.131 40.488C188.979 39.784 188.035 38.856 187.299 37.704C186.595 36.552 186.243 35.08 186.243 33.288C186.243 31.368 186.755 29.624 187.779 28.056C188.835 26.456 190.403 25.192 192.483 24.264C194.595 23.304 197.235 22.824 200.403 22.824C202.515 22.824 204.595 23.08 206.643 23.592C208.691 24.072 210.499 24.808 212.067 25.8L209.667 31.704C208.099 30.808 206.531 30.152 204.963 29.736C203.395 29.288 201.859 29.064 200.355 29.064C198.851 29.064 197.619 29.24 196.659 29.592C195.699 29.944 195.011 30.408 194.595 30.984C194.179 31.528 193.971 32.168 193.971 32.904C193.971 33.768 194.323 34.472 195.027 35.016C195.731 35.528 196.659 35.944 197.811 36.264C198.963 36.584 200.227 36.904 201.603 37.224C203.011 37.544 204.403 37.912 205.779 38.328C207.187 38.744 208.467 39.304 209.619 40.008C210.771 40.712 211.699 41.64 212.403 42.792C213.139 43.944 213.507 45.4 213.507 47.16C213.507 49.048 212.979 50.776 211.923 52.344C210.867 53.912 209.283 55.176 207.171 56.136C205.091 57.096 202.451 57.576 199.251 57.576ZM231.108 57.384C228.164 57.384 225.572 56.808 223.332 55.656C221.124 54.504 219.412 52.936 218.196 50.952C216.98 48.936 216.372 46.648 216.372 44.088C216.372 41.496 216.964 39.208 218.148 37.224C219.364 35.208 221.012 33.64 223.092 32.52C225.172 31.368 227.524 30.792 230.148 30.792C232.676 30.792 234.948 31.336 236.964 32.424C239.012 33.48 240.628 35.016 241.812 37.032C242.996 39.016 243.588 41.4 243.588 44.184C243.588 44.472 243.572 44.808 243.54 45.192C243.508 45.544 243.476 45.88 243.444 46.2H222.468V41.832H239.508L236.628 43.128C236.628 41.784 236.356 40.616 235.812 39.624C235.268 38.632 234.516 37.864 233.556 37.32C232.596 36.744 231.476 36.456 230.196 36.456C228.916 36.456 227.78 36.744 226.788 37.32C225.828 37.864 225.076 38.648 224.532 39.672C223.988 40.664 223.716 41.848 223.716 43.224V44.376C223.716 45.784 224.02 47.032 224.628 48.12C225.268 49.176 226.148 49.992 227.268 50.568C228.42 51.112 229.764 51.384 231.3 51.384C232.676 51.384 233.876 51.176 234.9 50.76C235.956 50.344 236.916 49.72 237.78 48.888L241.764 53.208C240.58 54.552 239.092 55.592 237.3 56.328C235.508 57.032 233.444 57.384 231.108 57.384ZM254.765 51.72L254.957 42.6L267.005 31.176H275.933L264.365 42.936L260.477 46.104L254.765 51.72ZM248.573 57V21.384H256.061V57H248.573ZM267.821 57L259.085 46.152L263.789 40.344L276.893 57H267.821ZM295.632 57V51.96L295.152 50.856V41.832C295.152 40.232 294.656 38.984 293.664 38.088C292.704 37.192 291.216 36.744 289.2 36.744C287.824 36.744 286.464 36.968 285.12 37.416C283.808 37.832 282.688 38.408 281.76 39.144L279.072 33.912C280.48 32.92 282.176 32.152 284.16 31.608C286.144 31.064 288.16 30.792 290.208 30.792C294.144 30.792 297.2 31.72 299.376 33.576C301.552 35.432 302.64 38.328 302.64 42.264V57H295.632ZM287.76 57.384C285.744 57.384 284.016 57.048 282.576 56.376C281.136 55.672 280.032 54.728 279.264 53.544C278.496 52.36 278.112 51.032 278.112 49.56C278.112 48.024 278.48 46.68 279.216 45.528C279.984 44.376 281.184 43.48 282.816 42.84C284.448 42.168 286.576 41.832 289.2 41.832H296.064V46.2H290.016C288.256 46.2 287.04 46.488 286.368 47.064C285.728 47.64 285.408 48.36 285.408 49.224C285.408 50.184 285.776 50.952 286.512 51.528C287.28 52.072 288.32 52.344 289.632 52.344C290.88 52.344 292 52.056 292.992 51.48C293.984 50.872 294.704 49.992 295.152 48.84L296.304 52.296C295.76 53.96 294.768 55.224 293.328 56.088C291.888 56.952 290.032 57.384 287.76 57.384ZM309.417 57V31.176H316.569V38.472L315.561 36.36C316.329 34.536 317.561 33.16 319.257 32.232C320.953 31.272 323.017 30.792 325.449 30.792V37.704C325.129 37.672 324.841 37.656 324.585 37.656C324.329 37.624 324.057 37.608 323.769 37.608C321.721 37.608 320.057 38.2 318.777 39.384C317.529 40.536 316.905 42.344 316.905 44.808V57H309.417ZM344.054 57V51.96L343.574 50.856V41.832C343.574 40.232 343.078 38.984 342.086 38.088C341.126 37.192 339.638 36.744 337.622 36.744C336.246 36.744 334.886 36.968 333.542 37.416C332.23 37.832 331.11 38.408 330.182 39.144L327.494 33.912C328.902 32.92 330.598 32.152 332.582 31.608C334.566 31.064 336.582 30.792 338.63 30.792C342.566 30.792 345.622 31.72 347.798 33.576C349.974 35.432 351.062 38.328 351.062 42.264V57H344.054ZM336.182 57.384C334.166 57.384 332.438 57.048 330.998 56.376C329.558 55.672 328.454 54.728 327.686 53.544C326.918 52.36 326.534 51.032 326.534 49.56C326.534 48.024 326.902 46.68 327.638 45.528C328.406 44.376 329.606 43.48 331.238 42.84C332.87 42.168 334.998 41.832 337.622 41.832H344.486V46.2H338.438C336.678 46.2 335.462 46.488 334.79 47.064C334.15 47.64 333.83 48.36 333.83 49.224C333.83 50.184 334.198 50.952 334.934 51.528C335.702 52.072 336.742 52.344 338.054 52.344C339.302 52.344 340.422 52.056 341.414 51.48C342.406 50.872 343.126 49.992 343.574 48.84L344.726 52.296C344.182 53.96 343.19 55.224 341.75 56.088C340.31 56.952 338.454 57.384 336.182 57.384ZM373.535 30.792C375.583 30.792 377.407 31.208 379.007 32.04C380.639 32.84 381.919 34.088 382.847 35.784C383.775 37.448 384.239 39.592 384.239 42.216V57H376.751V43.368C376.751 41.288 376.287 39.752 375.359 38.76C374.463 37.768 373.183 37.272 371.519 37.272C370.335 37.272 369.263 37.528 368.303 38.04C367.375 38.52 366.639 39.272 366.095 40.296C365.583 41.32 365.327 42.632 365.327 44.232V57H357.839V31.176H364.991V38.328L363.647 36.168C364.575 34.44 365.903 33.112 367.631 32.184C369.359 31.256 371.327 30.792 373.535 30.792ZM403.358 66.696C400.926 66.696 398.574 66.392 396.302 65.784C394.062 65.208 392.19 64.328 390.686 63.144L393.662 57.768C394.75 58.664 396.126 59.368 397.79 59.88C399.486 60.424 401.15 60.696 402.782 60.696C405.438 60.696 407.358 60.104 408.542 58.92C409.758 57.736 410.366 55.976 410.366 53.64V49.752L410.846 43.272L410.75 36.744V31.176H417.854V52.68C417.854 57.48 416.606 61.016 414.11 63.288C411.614 65.56 408.03 66.696 403.358 66.696ZM402.206 55.752C399.806 55.752 397.63 55.24 395.678 54.216C393.758 53.16 392.206 51.704 391.022 49.848C389.87 47.96 389.294 45.768 389.294 43.272C389.294 40.744 389.87 38.552 391.022 36.696C392.206 34.808 393.758 33.352 395.678 32.328C397.63 31.304 399.806 30.792 402.206 30.792C404.382 30.792 406.302 31.24 407.966 32.136C409.63 33 410.926 34.36 411.854 36.216C412.782 38.04 413.246 40.392 413.246 43.272C413.246 46.12 412.782 48.472 411.854 50.328C410.926 52.152 409.63 53.512 407.966 54.408C406.302 55.304 404.382 55.752 402.206 55.752ZM403.694 49.608C405.006 49.608 406.174 49.352 407.198 48.84C408.222 48.296 409.022 47.544 409.598 46.584C410.174 45.624 410.462 44.52 410.462 43.272C410.462 41.992 410.174 40.888 409.598 39.96C409.022 39 408.222 38.264 407.198 37.752C406.174 37.208 405.006 36.936 403.694 36.936C402.382 36.936 401.214 37.208 400.19 37.752C399.166 38.264 398.35 39 397.742 39.96C397.166 40.888 396.878 41.992 396.878 43.272C396.878 44.52 397.166 45.624 397.742 46.584C398.35 47.544 399.166 48.296 400.19 48.84C401.214 49.352 402.382 49.608 403.694 49.608Z" fill="black"/>
</svg>
