<svg width="478" height="503" viewBox="0 0 478 503" fill="none" xmlns="http://www.w3.org/2000/svg">
<path opacity="0.18" d="M475.08 180.518C478.508 193.21 478.923 206.449 476.297 219.307C473.671 232.165 468.068 244.33 459.88 254.948C447.654 270.507 430.225 282.142 419.371 298.526C395.912 333.9 408.504 382.203 386.987 418.643C369.001 449.127 331.74 464.102 297.141 476.956C269.972 487.04 242.532 497.189 213.734 501.253C184.935 505.318 153.963 502.739 129.009 488.73C108.429 477.21 93.31 458.945 79.3454 440.706C45.0181 395.832 13.9918 346.969 3.45049 292.684C-7.09085 238.398 6.05865 177.507 49.2836 139.949C70.3255 121.659 97.8878 109.047 112.735 86.0447C128.316 61.9121 128.534 28.2407 152.754 11.424C161.693 5.21304 172.805 2.32983 183.835 0.958075C210.391 -2.238 237.343 2.60981 260.735 14.7899C284.467 27.2246 303.947 46.9879 329.797 54.939C363.255 65.2398 406.195 57.3269 428.432 87.8102C446.295 112.324 467.147 151.965 475.08 180.518Z" fill="#FF7A00"/>
<path d="M332.518 151.213C332.145 151.963 331.636 152.645 331.015 153.228C326.037 158.236 319.592 161.703 312.518 163.179C310.021 163.727 307.466 164.002 304.902 164C303.4 154.77 301.872 145.528 300.696 136.261C299.769 129.021 299.076 121.794 298.75 114.529C298.528 109.977 288.169 94.1042 290.285 89.85C292.623 85.1729 309.461 101.182 311.356 104.23C321.871 121.023 325.647 134.009 332.857 148.451C333.13 149.378 333.008 150.37 332.518 151.213Z" fill="#FF7A00"/>
<path d="M314.417 161.437C313.879 162.068 313.273 162.649 312.606 163.171C309.943 163.724 307.218 164.002 304.485 164C302.883 154.676 301.254 145.34 300 135.978C300.474 128.623 301.333 121.297 302.577 114C302.048 117.054 306.213 123.713 307.341 126.704L312.23 139.735C314.779 146.533 320.226 154.802 314.417 161.437Z" fill="url(#paint0_linear_23_2)"/>
<path d="M308.934 177.231C310.006 183.346 311.373 189.536 314.603 194.95C316.264 197.731 318.744 200.463 322.107 200.952C323.978 201.117 325.864 200.855 327.602 200.188C331.205 199.029 334.601 197.373 337.68 195.275C340.622 193.166 343.394 190.859 345.976 188.371C349.815 184.982 353.369 181.321 356.603 177.419C358.091 175.539 359.444 173.559 361.066 171.768C367.767 164.312 378.488 160.966 386.087 154.312C388.137 152.533 392.292 144.388 391.984 141.781C389.196 140.278 383.474 146.33 380.391 147.207C377.309 148.084 374.428 149.513 371.332 150.327C367.625 151.294 363.713 151.341 359.981 150.465C358.721 150.164 357.22 131.581 355.96 132.007C355.326 132.256 354.759 132.632 354.298 133.11C351.698 135.616 350.278 157.006 348.12 159.788C345.158 163.547 341.057 166.404 336.997 169.136C336.635 169.374 336.179 169.625 335.777 169.437C335.645 169.345 335.534 169.228 335.451 169.095C335.368 168.961 335.315 168.813 335.295 168.66C334.236 164.988 333.043 161.342 331.743 157.746C330.832 155.239 329.545 152.483 326.852 151.731C324.453 151.067 321.96 152.332 319.816 153.548C317.055 155.127 314.267 156.68 311.52 158.272C309.992 159.149 308.143 160.001 307.419 161.618C306.535 163.56 307.285 166.241 307.54 168.234C307.942 171.254 308.411 174.249 308.934 177.231Z" fill="#F5BCBA"/>
<path d="M332.98 345.615C332.98 349.415 332.778 353.152 332.414 356.865C329.271 388.638 313.009 418.084 286.988 439.121C260.966 460.157 227.173 471.176 192.59 469.9C158.007 468.625 125.277 455.154 101.161 432.269C77.0451 409.384 63.3864 378.834 63.0067 346.931C63.0067 346.509 63.0067 346.099 63.0067 345.689C62.8285 329.243 66.1886 312.927 72.8927 297.685C79.5969 282.444 89.512 268.578 102.065 256.89C114.618 245.202 129.56 235.924 146.026 229.592C162.493 223.26 180.158 220 198 220C215.842 220 233.507 223.26 249.974 229.592C266.44 235.924 281.382 245.202 293.935 256.89C306.488 268.578 316.403 282.444 323.107 297.685C329.811 312.927 333.171 329.243 332.993 345.689L332.98 345.615Z" fill="#FF7A00"/>
<path d="M332.98 345.153C332.98 348.937 332.778 352.659 332.414 356.357C301.351 375.758 255.633 388 204.648 388C145.378 388 93.3016 371.467 63.0067 346.402C63.0067 345.982 63.0067 345.574 63.0067 345.166C62.8285 328.788 66.1886 312.54 72.8927 297.362C79.5969 282.183 89.512 268.375 102.065 256.736C114.618 245.097 129.56 235.858 146.026 229.552C162.493 223.247 180.158 220 198 220C215.842 220 233.507 223.247 249.974 229.552C266.44 235.858 281.382 245.097 293.935 256.736C306.488 268.375 316.403 282.183 323.107 297.362C329.811 312.54 333.171 328.788 332.993 345.166L332.98 345.153Z" fill="url(#paint1_linear_23_2)"/>
<path d="M260.797 296.734C266.15 298.511 271.97 299.782 276.359 303.152C280.253 306.126 282.621 310.433 284.534 314.741C290.914 329.196 293.216 344.907 291.224 360.406C290.689 364.528 289.886 368.774 291.051 372.748C292.215 376.722 296.189 380.45 300.658 379.956C306.853 368.601 306.987 355.346 307 342.634C307 333.352 307 323.874 303.628 315.123C300.872 307.916 296.001 301.547 290.97 295.487C272.626 273.272 250.428 252.549 222.168 242.565C220.996 242.012 219.65 241.859 218.368 242.133C212.547 244.095 213.497 253.648 215.759 257.486C218.97 262.789 222.545 267.896 226.463 272.778C235.058 283.746 247.016 292.09 260.797 296.734Z" fill="url(#paint2_linear_23_2)"/>
<path d="M206.524 269.524C206.605 267.848 206.843 266.181 207.235 264.542C207.446 263.728 207.898 262.983 208.542 262.388C209.186 261.793 209.998 261.37 210.888 261.166C211.639 261.148 212.389 261.085 213.132 260.979C214.65 260.556 215.293 258.949 215.731 257.566L220.588 242.121C221.518 239.131 222.462 235.993 221.751 232.966C220.629 228.232 215.854 225.031 211.203 222.714C207.823 221.02 204.02 219.513 200.258 220.148C194.43 221.132 191.05 226.613 188.875 231.633C186.344 237.012 184.787 242.728 184.265 248.561C183.882 255.299 183.252 271.804 187.835 277.695C194.183 285.966 205.511 276.998 206.524 269.524Z" fill="url(#paint3_linear_23_2)"/>
<path d="M279.353 248.563C291.472 252.405 304.392 254.019 316.07 258.911C316.446 259.018 316.795 259.196 317.094 259.435C317.393 259.675 317.636 259.969 317.807 260.3C317.909 260.842 317.835 261.4 317.593 261.902C307.731 289.37 302.169 318.03 301.079 346.991C308.066 348.169 315.207 348.316 322.243 347.429C323.034 347.383 323.8 347.155 324.475 346.766C325.123 346.234 325.611 345.552 325.891 344.789C337.195 321.022 347.34 296.809 356.328 272.15C357.918 267.783 359.495 263.216 358.853 258.636C357.931 251.967 352.574 246.711 347.483 241.969L307.813 204.905C306.804 203.839 305.565 202.986 304.179 202.402C302.583 201.958 300.896 201.88 299.262 202.177C283.615 203.991 262.251 204.554 233.497 203.428C229.769 203.278 248.194 223.161 249.731 226.978C250.96 230.006 254.848 233.91 257.227 236.263C263.186 242.119 271.229 245.985 279.353 248.563Z" fill="#525263"/>
<path d="M279.353 248.563C291.472 252.405 304.392 254.019 316.07 258.911C316.446 259.018 316.795 259.196 317.094 259.435C317.393 259.675 317.636 259.969 317.807 260.3C317.909 260.842 317.835 261.4 317.593 261.902C307.731 289.37 302.169 318.03 301.079 346.991C308.066 348.169 315.207 348.316 322.243 347.429C323.034 347.383 323.8 347.155 324.475 346.766C325.123 346.234 325.611 345.552 325.891 344.789C337.195 321.022 347.34 296.809 356.328 272.15C357.918 267.783 359.495 263.216 358.853 258.636C357.931 251.967 352.574 246.711 347.483 241.969L307.813 204.905C306.804 203.839 305.565 202.986 304.179 202.402C302.583 201.958 300.896 201.88 299.262 202.177C283.615 203.991 262.251 204.554 233.497 203.428C229.769 203.278 248.194 223.161 249.731 226.978C250.96 230.006 254.848 233.91 257.227 236.263C263.186 242.119 271.229 245.985 279.353 248.563Z" fill="url(#paint4_linear_23_2)"/>
<path d="M298.656 363.07C297.687 364.502 297.032 366.104 296.728 367.781C296.019 370.717 295.496 373.691 295.16 376.686C294.894 379.01 294.801 381.536 296.196 383.443C297.592 385.35 299.892 386.045 302.046 386.841C307.467 388.96 312.734 391.42 317.812 394.204C321.242 395.998 324.818 397.854 328.726 397.993C332.634 398.132 336.955 396.099 337.846 392.486C338.154 390.747 337.999 388.963 337.394 387.295C335.26 380.048 331.076 373.495 325.296 368.35C324.283 367.411 323.154 366.592 321.933 365.912C320.762 365.337 319.538 364.864 318.277 364.497C314.727 363.263 311.089 362.271 307.39 361.529C304.159 361.037 300.889 360.127 298.656 363.07Z" fill="#2E2E3F"/>
<path d="M298.656 363.07C297.687 364.502 297.032 366.104 296.728 367.781C296.019 370.717 295.496 373.691 295.16 376.686C294.894 379.01 294.801 381.536 296.196 383.443C297.592 385.35 299.892 386.045 302.046 386.841C307.467 388.96 312.734 391.42 317.812 394.204C321.242 395.998 324.818 397.854 328.726 397.993C332.634 398.132 336.955 396.099 337.846 392.486C338.154 390.747 337.999 388.963 337.394 387.295C335.26 380.048 331.076 373.495 325.296 368.35C324.283 367.411 323.154 366.592 321.933 365.912C320.762 365.337 319.538 364.864 318.277 364.497C314.727 363.263 311.089 362.271 307.39 361.529C304.159 361.037 300.889 360.127 298.656 363.07Z" fill="url(#paint5_linear_23_2)"/>
<path d="M303.508 347.495C302.539 352.588 302.034 357.759 302 362.944C302 365.223 302.153 367.746 303.777 369.381C305.313 370.611 307.272 371.176 309.222 370.952C311.573 370.864 313.893 370.381 316.086 369.523C316.572 369.37 317.012 369.096 317.364 368.725C317.623 368.359 317.802 367.942 317.888 367.502C319.839 360.132 320.873 352.547 320.969 344.92C321.093 343.725 320.847 342.52 320.265 341.47C319.051 339.758 316.533 339.835 314.488 340.247C311.87 340.812 309.304 341.6 306.819 342.603C304.467 343.427 303.981 345.049 303.508 347.495Z" fill="#F5BCBA"/>
<path d="M329.055 370.929C330.074 373.103 330.903 375.341 331.535 377.624C331.972 379.399 332.225 381.296 333.536 382.716C335.198 384.49 338.087 384.943 340.721 384.98C342.893 385.087 345.065 384.769 347.076 384.05C348.123 383.693 348.998 383.037 349.556 382.189C349.948 381.352 350.084 380.442 349.95 379.546C349.745 373.327 347.96 367.225 344.723 361.676C342.867 358.808 340.776 356.059 338.467 353.451C337.738 352.278 336.509 351.399 335.043 351.003C334.29 350.98 333.539 351.088 332.835 351.321C332.13 351.555 331.487 351.909 330.943 352.362C328.618 353.879 323.504 356.413 324.039 359.289C324.715 363.12 327.477 367.294 329.055 370.929Z" fill="#F5BCBA"/>
<path d="M345.602 375.571C344.042 376.351 342.528 377.203 341.066 378.123C338.792 379.245 336.117 379.467 333.622 380.108C332.964 380.221 332.358 380.508 331.885 380.934C331.541 381.349 331.327 381.838 331.265 382.351C330.796 385.717 330.95 389.128 331.72 392.448C332.988 399.632 334.468 406.787 336.159 413.912C336.862 416.847 337.703 419.941 340.088 422.049C342.472 424.157 346.098 424.885 349.489 424.971C352.662 425.134 355.832 424.605 358.725 423.43C361.027 422.328 363.021 420.776 364.558 418.889C366.095 417.002 367.136 414.829 367.603 412.532C368.501 407.913 367.868 403.16 365.783 398.859C364.368 395.918 362.718 393.071 360.848 390.34C358.367 386.527 355.895 382.713 353.432 378.899C351.557 375.99 349.848 373.956 345.602 375.571Z" fill="#2E2E3F"/>
<path d="M345.602 375.571C344.042 376.351 342.528 377.203 341.066 378.123C338.792 379.245 336.117 379.467 333.622 380.108C332.964 380.221 332.358 380.508 331.885 380.934C331.541 381.349 331.327 381.838 331.265 382.351C330.796 385.717 330.95 389.128 331.72 392.448C332.988 399.632 334.468 406.787 336.159 413.912C336.862 416.847 337.703 419.941 340.088 422.049C342.472 424.157 346.098 424.885 349.489 424.971C352.662 425.134 355.832 424.605 358.725 423.43C361.027 422.328 363.021 420.776 364.558 418.889C366.095 417.002 367.136 414.829 367.603 412.532C368.501 407.913 367.868 403.16 365.783 398.859C364.368 395.918 362.718 393.071 360.848 390.34C358.367 386.527 355.895 382.713 353.432 378.899C351.557 375.99 349.848 373.956 345.602 375.571Z" fill="url(#paint6_linear_23_2)"/>
<path d="M182.617 148.263C181.426 151.004 180.63 153.876 180.249 156.805C178.954 164.389 178.127 172.034 177.772 179.703C177.091 194.346 178.126 209.014 177.676 223.656C177.214 238.885 175.254 254.673 181.242 268.88C182.175 271.458 183.75 273.803 185.843 275.728C186.902 276.676 188.207 277.361 189.636 277.718C191.065 278.075 192.57 278.093 194.009 277.77C195.311 277.312 196.479 276.584 197.423 275.645C198.368 274.705 199.062 273.579 199.453 272.354C200.203 269.9 200.534 267.355 200.433 264.808L200.65 250.888C200.65 250.601 200.65 250.265 200.963 250.141C201.095 250.099 201.235 250.09 201.371 250.114C201.508 250.138 201.635 250.194 201.739 250.278C202.91 251.203 204.024 252.189 205.074 253.229C206.285 254.125 208.218 254.561 209.293 253.527C209.591 253.165 209.801 252.749 209.912 252.307C210.022 251.865 210.029 251.407 209.933 250.962C209.279 244.936 203.536 240.59 200.12 235.398C195.193 227.927 195.193 218.514 196.431 209.823C197.969 198.94 201.181 188.319 204.38 177.736L207.102 168.783C209.157 161.985 211.185 154.564 208.191 148.051C206.988 145.55 205.157 143.344 202.847 141.613C200.536 139.882 197.811 138.675 194.893 138.09C189.204 137.132 184.672 144.03 182.617 148.263Z" fill="#F5BCBA"/>
<path d="M308.493 204.872C306.769 209.163 297.04 204.155 291.481 206.727C280.87 211.673 268.763 206.591 256.936 206.727C244.347 206.937 235.661 218.411 223.166 219.87C222.257 220.043 221.321 220.043 220.413 219.87C218.689 219.4 217.673 217.805 216.938 216.309C215.86 214.001 215.088 211.581 214.639 209.101C213.089 200.891 214.639 192.087 216.297 183.741C217.686 176.669 219.072 169.593 220.453 162.512C222.056 154.269 223.673 145.977 225.304 137.635C226.255 132.132 227.594 126.692 229.313 121.351C229.634 120.424 229.968 119.521 230.328 118.631C233.437 111.38 237.187 104.378 241.541 97.6981C244.213 93.4076 246.886 89.043 251.016 85.7912C255.626 82.1932 261.573 80.4004 267.546 79.5349C272.919 78.598 278.457 78.8952 283.676 80.4004C286.657 81.3648 287.779 84.2828 290.145 86.0756C293.143 88.1309 295.819 90.561 298.096 93.2964C300.409 96.5989 302.061 100.259 302.974 104.103C311.353 134.247 299.232 166.765 307.197 196.996C308.105 200.545 309.869 201.484 308.493 204.872Z" fill="#FF7A00"/>
<path d="M295.907 98.4804L297 104.656L292.794 102.637V119L288 100.825L292.64 95L295.907 98.4804Z" fill="url(#paint7_linear_23_2)"/>
<path d="M262.873 98.525L265.227 99.7406L268.963 102.913L259 129C259 129 273.471 107.265 273.945 96.1789C274.238 89.3596 273.366 82.5402 271.367 76L262.873 98.525Z" fill="url(#paint8_linear_23_2)"/>
<path d="M228.587 174.397C227.76 180.488 227.76 186.655 228.587 192.746C229.12 196.577 229.979 200.396 229.706 204.239C229.718 204.99 229.466 205.723 228.99 206.322C228.379 206.796 227.629 207.077 226.843 207.128C222.774 207.74 218.7 208.364 214.623 209C213.113 200.768 214.623 191.94 216.236 183.572C217.59 176.48 218.939 169.384 220.284 162.285C221.845 154.019 223.42 145.704 225.008 137.34C225.934 131.822 227.238 126.368 228.912 121.012C229.224 120.082 229.55 119.177 229.901 118.284C233.936 116.152 239.545 114.565 242.043 118.012C244.646 121.731 241.223 130.409 240.208 134.129C236.512 147.605 230.448 160.487 228.587 174.397Z" fill="url(#paint9_linear_23_2)"/>
<path d="M323.858 67.1519C323.996 68.6892 323.947 70.2362 323.712 71.7633C323.578 72.5246 323.17 73.2208 322.555 73.7376C321.94 74.2543 321.154 74.5608 320.327 74.6068C316.186 74.3224 313.199 78.019 309.907 80.3927C307.324 82.1951 304.258 83.2999 301.045 83.5856C297.832 83.8713 294.597 83.3269 291.695 82.0122C291.118 81.8191 290.484 81.8397 289.923 82.0698C289.362 82.2999 288.918 82.7218 288.682 83.2485C288.267 84.3391 288.176 85.5134 288.416 86.6483L289.943 100.173C290.235 102.782 290.261 105.972 287.885 107.381C285.509 108.79 282.695 107.566 280.73 105.972C277.642 103.206 275.409 99.7169 274.266 95.8711C271.67 88.0793 271.298 79.7923 273.185 71.8257C275.073 63.8592 279.155 56.4878 285.031 50.4371C287.237 48.1408 289.823 46.1875 292.69 44.6512C295.692 43.2001 298.916 42.1869 302.248 41.647C305.23 40.9915 308.313 40.8325 311.354 41.1772C315.438 41.8689 319.152 43.8249 321.894 46.7282C323.912 48.7805 325.876 54.9002 328 55.9016C326.42 59.6352 323.925 62.9361 323.858 67.1519Z" fill="#F5BCBA"/>
<path d="M292.104 13.2827C290.128 12.8573 288.065 12.9128 286.12 13.4439C282.319 14.6843 280.19 18.3435 278.816 21.8291C277.441 25.3146 276.309 29.1227 273.317 31.5911C270.743 33.7246 267.091 34.5805 264.773 36.9372C262.077 39.6785 261.821 43.7347 262.077 47.4187C262.077 50.1826 262.923 52.8908 264.517 55.2333C265.945 57.0194 268.142 58.2599 269.26 60.1949C270.527 62.4152 270.959 65.8512 273.681 66C274.816 65.9472 275.888 65.5046 276.686 64.7596C279.438 62.5705 281.512 59.7503 282.697 56.5853C283.357 54.8239 283.788 52.8641 285.244 51.6237C286.699 50.3833 289.664 50.3088 290.325 52.0702C290.51 53.1909 290.322 54.337 289.786 55.3573C289.435 56.4489 289.583 57.9249 290.742 58.2971C292.926 55.196 294.152 51.5492 296.74 48.7335C298.208 47.1499 300.05 45.8966 302.126 45.0695C304.202 44.2424 306.456 43.8634 308.715 43.9615C310.974 44.0597 313.179 44.6324 315.161 45.6359C317.143 46.6393 318.849 48.0468 320.149 49.7507C321.496 51.5244 322.413 53.6331 324.3 54.8983C326.077 55.8951 328.108 56.4427 330.189 56.4861C334.825 56.9078 339.731 57.0691 343.908 55.1712C348.086 53.2734 351.172 48.6715 349.569 44.6402C348.302 41.4771 344.69 39.6785 341.186 38.6614C337.682 37.6443 333.936 37.1357 330.849 35.3247C326.658 32.8439 324.421 28.428 321.982 24.4215C319.542 20.415 316.241 16.2969 311.362 15.3541C309.37 15.0688 307.343 15.0688 305.351 15.3541C303.408 15.7336 301.419 15.8754 299.435 15.7759C297.009 15.3169 294.664 13.8036 292.104 13.2827Z" fill="#2E2E3F"/>
<path d="M291.777 115.139C294.816 129.459 295.712 144.102 294.439 158.651C293.387 170.758 290.885 182.778 290.978 194.922C291.174 198.337 291.062 201.762 290.645 205.16C290.06 208.527 265.783 207.239 262.242 207.202C256.279 207.128 263.839 214.63 259.354 211.015C252.313 205.308 249.172 196.408 248.307 187.767C247.069 175.45 249.784 163.12 252.739 151.05C254.789 142.694 256.971 134.314 260.645 126.453C265.197 116.735 272.398 104.369 274.713 93.9826C275.046 92.4599 269.39 86.9265 271.825 87.0007C273.409 87.0007 272.664 89.2909 272.943 90.4298C273.443 92.164 274.399 93.7552 275.725 95.0596C277.581 97.0757 280.096 98.4714 282.886 99.0333C284.683 99.3427 286.732 99.2685 288.037 100.457C289.62 101.893 289.368 104.691 289.82 106.646C290.472 109.444 291.164 112.279 291.777 115.139Z" fill="#F2F2F2"/>
<path d="M238.826 77.8494C232.232 80.6174 226.564 84.9064 221.209 89.395C216.777 93.0497 212.592 96.947 208.675 101.065C205.214 104.806 202.053 108.683 198.402 112.212C193.361 117.062 187.066 121.75 186.072 128.421C185.767 131.899 186.433 135.391 188.007 138.57C189.303 141.815 191.217 144.825 193.661 147.46C196.761 150.598 200.851 152.777 205.364 153.694C206.779 154.031 208.255 154.091 209.697 153.868C211.727 153.339 213.593 152.383 215.147 151.075C218.698 148.616 222.062 145.937 225.215 143.058C228.43 140.004 231.155 136.525 234.289 133.395C237.014 130.702 239.916 128.271 242.641 125.628C245.897 122.461 248.799 119.007 251.701 115.553C255.807 110.869 259.571 105.941 262.969 100.803C265.806 96.269 268.06 91.4491 269.685 86.44C270.735 83.1733 272.41 79.0339 268.786 76.6774C261.088 71.715 246.497 74.5703 238.826 77.8494Z" fill="#FF7A00"/>
<path d="M238.826 77.8494C232.232 80.6174 226.564 84.9064 221.209 89.395C216.777 93.0497 212.592 96.947 208.675 101.065C205.214 104.806 202.053 108.683 198.402 112.212C193.361 117.062 187.066 121.75 186.072 128.421C185.767 131.899 186.433 135.391 188.007 138.57C189.303 141.815 191.217 144.825 193.661 147.46C196.761 150.598 200.851 152.777 205.364 153.694C206.779 154.031 208.255 154.091 209.697 153.868C211.727 153.339 213.593 152.383 215.147 151.075C218.698 148.616 222.062 145.937 225.215 143.058C228.43 140.004 231.155 136.525 234.289 133.395C237.014 130.702 239.916 128.271 242.641 125.628C245.897 122.461 248.799 119.007 251.701 115.553C255.807 110.869 259.571 105.941 262.969 100.803C265.806 96.269 268.06 91.4491 269.685 86.44C270.735 83.1733 272.41 79.0339 268.786 76.6774C261.088 71.715 246.497 74.5703 238.826 77.8494Z" fill="#FF7A00"/>
<path d="M349.076 134.722C347.625 135.568 346.588 136.901 346.185 138.44C345.782 139.979 346.044 141.602 346.916 142.966C349.169 146.581 352.19 149.739 355.799 152.25C357.946 154.379 362.776 154.725 367.07 152.398C371.364 150.071 391.853 139.785 402.091 133.064C402.842 132.587 403.48 131.975 403.966 131.264C404.452 130.552 404.776 129.757 404.918 128.927C405.06 128.096 405.017 127.248 404.792 126.433C404.566 125.619 404.164 124.855 403.608 124.189L395.033 114.286C394.017 113.114 392.568 112.33 390.963 112.083C389.359 111.836 387.712 112.145 386.339 112.949L349.076 134.722Z" fill="#3D3D54"/>
<path d="M214.84 242.359C216.35 247.519 219.03 252.318 222.7 256.435C226.717 260.795 232.18 263.909 237.429 266.874L259.536 279.393C262.778 281.127 265.879 283.08 268.815 285.235C276.059 290.79 280.867 298.538 285.54 306.112L317.783 358.392C319.417 361.07 321.706 364.097 325.014 363.998C326.795 363.782 328.469 363.09 329.834 362.005C333.972 359.301 338.417 356.225 339.649 351.653C340.506 348.464 339.649 345.113 338.618 341.949C333.664 326.366 325.898 311.692 318.105 297.106C305.723 274.02 293.159 250.979 280.411 227.984C277.024 221.88 272.913 212.376 267.316 207.892C267.316 207.892 215.308 204.952 213.996 209.748C211.073 220.486 211.365 231.764 214.84 242.359Z" fill="#525263"/>
<path d="M214.84 242.359C216.35 247.519 219.03 252.318 222.7 256.435C226.717 260.795 232.18 263.909 237.429 266.874L259.536 279.393C262.778 281.127 265.879 283.08 268.815 285.235C276.059 290.79 280.867 298.538 285.54 306.112L317.783 358.392C319.417 361.07 321.706 364.097 325.014 363.998C326.795 363.782 328.469 363.09 329.834 362.005C333.972 359.301 338.417 356.225 339.649 351.653C340.506 348.464 339.649 345.113 338.618 341.949C333.664 326.366 325.898 311.692 318.105 297.106C305.723 274.02 293.159 250.979 280.411 227.984C277.024 221.88 272.913 212.376 267.316 207.892C267.316 207.892 215.308 204.952 213.996 209.748C211.073 220.486 211.365 231.764 214.84 242.359Z" fill="url(#paint10_linear_23_2)"/>
<path d="M273.154 73L266.211 75.6082L262 98L276 97.399L273.154 73Z" fill="#FF7A00"/>
<path d="M288.391 97.3401C288.391 98.3888 288.391 99.4376 288.391 100.486C288.391 100.941 288.417 101.395 288.47 101.847C288.55 102.306 288.656 102.76 288.789 103.208L290.618 110L291.373 98.9631C293.533 99.9494 295.747 100.848 298 101.635C297.83 99.9809 297.383 98.3627 296.675 96.8406C295.349 93.6444 294.13 90.4358 292.698 87.302C292.364 86.4649 291.88 85.688 291.267 85.0047C290.958 84.6659 290.57 84.3993 290.133 84.226C289.696 84.0527 289.222 83.9773 288.749 84.0059C287.423 84.5303 288.258 89.2122 288.272 90.2485L288.391 97.3401Z" fill="#FF7A00"/>
<path d="M396.245 129.404L369.075 145.729C368.599 145.973 368.049 146.056 367.517 145.963C366.985 145.871 366.502 145.609 366.147 145.22L357.51 135.972C357.332 135.814 357.194 135.621 357.107 135.405C357.02 135.19 356.985 134.958 357.006 134.728C357.026 134.498 357.102 134.276 357.226 134.077C357.35 133.879 357.52 133.71 357.723 133.583L384.946 117.271C385.422 117.027 385.972 116.944 386.504 117.037C387.037 117.129 387.52 117.391 387.874 117.78L396.512 127.015C396.687 127.177 396.821 127.373 396.904 127.591C396.987 127.809 397.017 128.041 396.991 128.272C396.965 128.502 396.885 128.723 396.755 128.92C396.626 129.116 396.451 129.281 396.245 129.404Z" fill="#FF7A00"/>
<defs>
<linearGradient id="paint0_linear_23_2" x1="274.759" y1="139.396" x2="331.924" y2="138.423" gradientUnits="userSpaceOnUse">
<stop offset="0.01"/>
<stop offset="0.13" stop-opacity="0.69"/>
<stop offset="1" stop-opacity="0"/>
</linearGradient>
<linearGradient id="paint1_linear_23_2" x1="443.464" y1="90.2247" x2="60.1824" y2="526.336" gradientUnits="userSpaceOnUse">
<stop offset="0.01"/>
<stop offset="0.13" stop-opacity="0.69"/>
<stop offset="1" stop-opacity="0"/>
</linearGradient>
<linearGradient id="paint2_linear_23_2" x1="331.473" y1="241.405" x2="221.598" y2="365.84" gradientUnits="userSpaceOnUse">
<stop offset="0.01"/>
<stop offset="0.13" stop-opacity="0.69"/>
<stop offset="1" stop-opacity="0"/>
</linearGradient>
<linearGradient id="paint3_linear_23_2" x1="154.18" y1="224.782" x2="310.792" y2="332.523" gradientUnits="userSpaceOnUse">
<stop offset="0.01"/>
<stop offset="0.13" stop-opacity="0.69"/>
<stop offset="1" stop-opacity="0"/>
</linearGradient>
<linearGradient id="paint4_linear_23_2" x1="233.002" y1="274.953" x2="359" y2="274.953" gradientUnits="userSpaceOnUse">
<stop offset="0.01"/>
<stop offset="0.13" stop-opacity="0.69"/>
<stop offset="1" stop-opacity="0"/>
</linearGradient>
<linearGradient id="paint5_linear_23_2" x1="345.742" y1="386.664" x2="311.473" y2="377.407" gradientUnits="userSpaceOnUse">
<stop offset="0.01"/>
<stop offset="0.13" stop-opacity="0.69"/>
<stop offset="1" stop-opacity="0"/>
</linearGradient>
<linearGradient id="paint6_linear_23_2" x1="330.989" y1="399.994" x2="368.072" y2="399.994" gradientUnits="userSpaceOnUse">
<stop offset="0.01"/>
<stop offset="0.13" stop-opacity="0.69"/>
<stop offset="1" stop-opacity="0"/>
</linearGradient>
<linearGradient id="paint7_linear_23_2" x1="271.332" y1="91.6526" x2="305.39" y2="124.522" gradientUnits="userSpaceOnUse">
<stop offset="0.01"/>
<stop offset="0.13" stop-opacity="0.69"/>
<stop offset="1" stop-opacity="0"/>
</linearGradient>
<linearGradient id="paint8_linear_23_2" x1="295.415" y1="90.8303" x2="232.016" y2="116.558" gradientUnits="userSpaceOnUse">
<stop offset="0.01"/>
<stop offset="0.13" stop-opacity="0.69"/>
<stop offset="1" stop-opacity="0"/>
</linearGradient>
<linearGradient id="paint9_linear_23_2" x1="183.428" y1="163.909" x2="266.057" y2="160.904" gradientUnits="userSpaceOnUse">
<stop offset="0.01"/>
<stop offset="0.13" stop-opacity="0.69"/>
<stop offset="1" stop-opacity="0"/>
</linearGradient>
<linearGradient id="paint10_linear_23_2" x1="252.841" y1="293.307" x2="346.028" y2="251.182" gradientUnits="userSpaceOnUse">
<stop offset="0.01"/>
<stop offset="0.13" stop-opacity="0.69"/>
<stop offset="1" stop-opacity="0"/>
</linearGradient>
</defs>
</svg>
